<svg version="1.1" xmlns="http://www.w3.org/2000/svg" xmlns:xlink="http://www.w3.org/1999/xlink" width="2232" height="649" viewBox="0 0 2232 649"><defs/><g transform="matrix(1,0,0,1,0,0)"><g><g><g><path fill="none" stroke="#d3d3d3" paint-order="fill stroke markers" d=" M 0 0 L 1200 0" stroke-miterlimit="10" stroke-opacity="0.8" stroke-dasharray="5"/></g><g><path fill="none" stroke="#d3d3d3" paint-order="fill stroke markers" d=" M 0 0 L 0 800" stroke-miterlimit="10" stroke-opacity="0.8" stroke-dasharray="5"/></g></g><g id="_A9CFA4CC-78C6-49D0-B4C4-4D71DE034218" bpmn2nodeid="_A9CFA4CC-78C6-49D0-B4C4-4D71DE034218" transform="matrix(1,0,0,1,466,111)"><g><path fill="none" stroke="none"/></g><g transform="matrix(1,0,0,1,0,0)"><path fill="#ffffff" stroke="none" id="_A9CFA4CC-78C6-49D0-B4C4-4D71DE034218?shapeType=BACKGROUND" paint-order="stroke fill markers" d=" M 2 0 L 152 0 L 152 0 A 2 2 0 0 1 154 2 L 154 100 L 154 100 A 2 2 0 0 1 152 102 L 2 102 L 2 102 A 2 2 0 0 1 0 100 L 0 2 L 0 2.0000000000000004 A 2 2 0 0 1 1.9999999999999996 0 Z"/></g><g transform="matrix(1,0,0,1,0,0)"><path fill="none" stroke="rgb(0,0,0)" id="_A9CFA4CC-78C6-49D0-B4C4-4D71DE034218?shapeType=BORDER&amp;renderType=STROKE" paint-order="fill stroke markers" d=" M 2 0 L 152 0 L 152 0 A 2 2 0 0 1 154 2 L 154 100 L 154 100 A 2 2 0 0 1 152 102 L 2 102 L 2 102 A 2 2 0 0 1 0 100 L 0 2 L 0 2.0000000000000004 A 2 2 0 0 1 1.9999999999999996 0 Z" stroke-miterlimit="10" stroke-width="1.5" stroke-dasharray=""/></g><g><g transform="matrix(0.06,0,0,0.06,9.4,9.4)"><g transform="matrix(1,0,0,1,0,0)"><path fill="#393f44" stroke="none" id="_A9CFA4CC-78C6-49D0-B4C4-4D71DE034218_task__shBX__KZA5" paint-order="stroke fill markers" d=" M 0 0 M 16 445.2101 C 16 440.86867 18.784312 431.12906000000004 22.001325 424.21728 C 35.767643 394.6402 77.282944 359.28049 129 333.08362 C 144.51625 325.22398 157.34689 319.96394 167.80739 317.17416 C 171.93153 316.07426 175.72913 314.41389999999996 176.5251 313.36265 C 178.89361 310.23449999999997 180.91404 302.90781 181.72673 294.5 L 182.5 286.5 L 178.50715 283.45457 C 166.30327 274.14645 154.2837 251.67767 148.03953 226.5 C 145.61086 216.70715 145.05603000000002 215.46246 142.98364 215.1579 C 141.70332000000002 214.96974 138.08302 212.24302 134.93852 209.09852 C 123.23314 197.39314000000002 116.89146000000001 177.37556 121.43982000000001 166.48978 C 123.00204000000001 162.75088 128.15457 159.00970999999998 131.75 159.00374 C 134.44781 158.99974 134.47062 158.60296 132.91375 138.78796 C 130.92658 113.4962 134.27903 92.26542699999999 143.13217 74.075676 C 152.23162 55.379835 167.56889 42.88208 189.04934 36.659507000000005 C 210.20334 30.531504000000005 237.79666 30.531504000000005 258.95065999999997 36.659507000000005 C 300.04166 48.562968000000005 318.95842 83.80634 314.95504999999997 141 C 314.31982999999997 150.075 313.62402 157.78816 313.4088 158.14035 C 313.19359 158.49254000000002 314.57532 159.07295000000002 316.47931 159.43014000000002 C 328.92867 161.76565000000002 330.98619 177.01772000000003 321.49638 196.62092 C 316.90319 206.10912000000002 309.35724 214.50797 304.81732 215.18517000000003 C 303.02259 215.45289000000002 302.2931 217.14618000000002 299.94277999999997 226.50000000000003 C 296.65948 239.56693 294.47402 245.30522000000002 287.94764 257.99534000000006 C 282.49071999999995 268.60596000000004 273.03466 281.10922000000005 268.10756999999995 284.2288300000001 L 264.87062 286.27832000000006 L 265.51815999999997 292.88916000000006 C 266.34490999999997 301.32961000000006 268.63948999999997 309.8706000000001 270.87735999999995 312.83742000000007 C 272.06735 314.4150200000001 275.00244999999995 315.78963000000005 280.0630699999999 317.13941000000005 C 291.06929999999994 320.0750300000001 303.61700999999994 325.27420000000006 320.99999999999994 334.10171 C 369.81470999999993 358.89104000000003 410.84810999999996 393.75797 425.03216 422.5 C 429.06985999999995 430.68183 432 440.23198 432 445.2101 L 432 448 L 224 448 L 16 448 L 16 445.2101 Z"/></g></g></g><g transform="matrix(1,0,0,1,4.039999999999992,13.680000000000007)"><g transform="matrix(0.04,0,0,0.04,63.36,69.12)"><g transform="matrix(1,0,0,1,0,0)"><path fill="none" stroke="none"/></g><g transform="matrix(1,0,0,1,0,0)"><path fill="none" stroke="none"/></g></g></g><g transform="matrix(1,0,0,1,35,28.5)"><text fill="#000000" stroke="none" font-family="Open Sans" font-size="12pt" font-style="normal" font-weight="normal" text-decoration="normal" x="48.85546875" y="12" text-anchor="middle" dominant-baseline="alphabetic">    Initialize     </text><text fill="#000000" stroke="none" font-family="Open Sans" font-size="12pt" font-style="normal" font-weight="normal" text-decoration="normal" x="48.85546875" y="27" text-anchor="middle" dominant-baseline="alphabetic">medicament </text><text fill="#000000" stroke="none" font-family="Open Sans" font-size="12pt" font-style="normal" font-weight="normal" text-decoration="normal" x="48.85546875" y="42" text-anchor="middle" dominant-baseline="alphabetic">and add title </text></g></g><g id="_1D162508-3C4F-4F89-A08B-6AD2B1C88A88" bpmn2nodeid="_1D162508-3C4F-4F89-A08B-6AD2B1C88A88" transform="matrix(1,0,0,1,228,225)"><g><path fill="none" stroke="none"/></g><g transform="matrix(1,0,0,1,0,0)"><g transform="matrix(1,0,0,1,0,0)"><path fill="none" stroke="#000000" id="_1D162508-3C4F-4F89-A08B-6AD2B1C88A88?shapeType=BORDER&amp;renderType=STROKE" paint-order="fill stroke markers" d=" M 0 0 M 7.4 58.6 L 2.6 58.6 L 2.6 1.4 L 7.4 1.4" stroke-miterlimit="10" stroke-dasharray=""/></g><g><g transform="matrix(1,0,0,1,0,0)"><g transform="matrix(1,0,0,1,0,0)"><path fill="none" stroke="none"/></g></g></g></g><g transform="matrix(1,0,0,1,15.0234375,7.5)"><text fill="#000000" stroke="none" font-family="Open Sans" font-size="12pt" font-style="normal" font-weight="normal" text-decoration="normal" x="34.9765625" y="12" text-anchor="middle" dominant-baseline="alphabetic">Request  </text><text fill="#000000" stroke="none" font-family="Open Sans" font-size="12pt" font-style="normal" font-weight="normal" text-decoration="normal" x="34.9765625" y="27" text-anchor="middle" dominant-baseline="alphabetic">to create </text><text fill="#000000" stroke="none" font-family="Open Sans" font-size="12pt" font-style="normal" font-weight="normal" text-decoration="normal" x="34.9765625" y="42" text-anchor="middle" dominant-baseline="alphabetic">an article</text></g></g><g id="_CEB066E0-8437-4E95-81DA-0E9A6D3E3243" bpmn2nodeid="_CEB066E0-8437-4E95-81DA-0E9A6D3E3243" transform="matrix(1,0,0,1,1707,429)"><g><path fill="none" stroke="none"/></g><g transform="matrix(1,0,0,1,0,0)"><path fill="#ffffff" stroke="none" id="_CEB066E0-8437-4E95-81DA-0E9A6D3E3243?shapeType=BACKGROUND" paint-order="stroke fill markers" d=" M 2 0 L 152 0 L 152 0 A 2 2 0 0 1 154 2 L 154 100 L 154 100 A 2 2 0 0 1 152 102 L 2 102 L 2 102 A 2 2 0 0 1 0 100 L 0 2 L 0 2.0000000000000004 A 2 2 0 0 1 1.9999999999999996 0 Z"/></g><g transform="matrix(1,0,0,1,0,0)"><path fill="none" stroke="rgb(0,0,0)" id="_CEB066E0-8437-4E95-81DA-0E9A6D3E3243?shapeType=BORDER&amp;renderType=STROKE" paint-order="fill stroke markers" d=" M 2 0 L 152 0 L 152 0 A 2 2 0 0 1 154 2 L 154 100 L 154 100 A 2 2 0 0 1 152 102 L 2 102 L 2 102 A 2 2 0 0 1 0 100 L 0 2 L 0 2.0000000000000004 A 2 2 0 0 1 1.9999999999999996 0 Z" stroke-miterlimit="10" stroke-width="1.5" stroke-dasharray=""/></g><g><g transform="matrix(0.06,0,0,0.06,9.4,9.4)"><g transform="matrix(1,0,0,1,0,0)"><path fill="#393f44" stroke="none" id="_CEB066E0-8437-4E95-81DA-0E9A6D3E3243_task__shBX__KZA5" paint-order="stroke fill markers" d=" M 0 0 M 16 445.2101 C 16 440.86867 18.784312 431.12906000000004 22.001325 424.21728 C 35.767643 394.6402 77.282944 359.28049 129 333.08362 C 144.51625 325.22398 157.34689 319.96394 167.80739 317.17416 C 171.93153 316.07426 175.72913 314.41389999999996 176.5251 313.36265 C 178.89361 310.23449999999997 180.91404 302.90781 181.72673 294.5 L 182.5 286.5 L 178.50715 283.45457 C 166.30327 274.14645 154.2837 251.67767 148.03953 226.5 C 145.61086 216.70715 145.05603000000002 215.46246 142.98364 215.1579 C 141.70332000000002 214.96974 138.08302 212.24302 134.93852 209.09852 C 123.23314 197.39314000000002 116.89146000000001 177.37556 121.43982000000001 166.48978 C 123.00204000000001 162.75088 128.15457 159.00970999999998 131.75 159.00374 C 134.44781 158.99974 134.47062 158.60296 132.91375 138.78796 C 130.92658 113.4962 134.27903 92.26542699999999 143.13217 74.075676 C 152.23162 55.379835 167.56889 42.88208 189.04934 36.659507000000005 C 210.20334 30.531504000000005 237.79666 30.531504000000005 258.95065999999997 36.659507000000005 C 300.04166 48.562968000000005 318.95842 83.80634 314.95504999999997 141 C 314.31982999999997 150.075 313.62402 157.78816 313.4088 158.14035 C 313.19359 158.49254000000002 314.57532 159.07295000000002 316.47931 159.43014000000002 C 328.92867 161.76565000000002 330.98619 177.01772000000003 321.49638 196.62092 C 316.90319 206.10912000000002 309.35724 214.50797 304.81732 215.18517000000003 C 303.02259 215.45289000000002 302.2931 217.14618000000002 299.94277999999997 226.50000000000003 C 296.65948 239.56693 294.47402 245.30522000000002 287.94764 257.99534000000006 C 282.49071999999995 268.60596000000004 273.03466 281.10922000000005 268.10756999999995 284.2288300000001 L 264.87062 286.27832000000006 L 265.51815999999997 292.88916000000006 C 266.34490999999997 301.32961000000006 268.63948999999997 309.8706000000001 270.87735999999995 312.83742000000007 C 272.06735 314.4150200000001 275.00244999999995 315.78963000000005 280.0630699999999 317.13941000000005 C 291.06929999999994 320.0750300000001 303.61700999999994 325.27420000000006 320.99999999999994 334.10171 C 369.81470999999993 358.89104000000003 410.84810999999996 393.75797 425.03216 422.5 C 429.06985999999995 430.68183 432 440.23198 432 445.2101 L 432 448 L 224 448 L 16 448 L 16 445.2101 Z"/></g></g></g><g transform="matrix(1,0,0,1,4.039999999999992,13.680000000000007)"><g transform="matrix(0.04,0,0,0.04,63.36,69.12)"><g transform="matrix(1,0,0,1,0,0)"><path fill="none" stroke="none"/></g><g transform="matrix(1,0,0,1,0,0)"><path fill="none" stroke="none"/></g></g></g><g transform="matrix(1,0,0,1,46.49609375,36)"><text fill="#000000" stroke="none" font-family="Open Sans" font-size="12pt" font-style="normal" font-weight="normal" text-decoration="normal" x="30.50390625" y="12" text-anchor="middle" dominant-baseline="alphabetic">Send to </text><text fill="#000000" stroke="none" font-family="Open Sans" font-size="12pt" font-style="normal" font-weight="normal" text-decoration="normal" x="30.50390625" y="27" text-anchor="middle" dominant-baseline="alphabetic">remake </text></g></g><g id="_3C5F9193-92C6-48C6-B9B5-BE18794A62DE" bpmn2nodeid="_3C5F9193-92C6-48C6-B9B5-BE18794A62DE" transform="matrix(1,0,0,1,2126,270)"><g><path fill="none" stroke="none"/></g><g transform="matrix(0.125,0,0,0.125,0,0)"><g transform="matrix(1,0,0,1,0,0)"><path fill="#fce7e7" stroke="none" id="_3C5F9193-92C6-48C6-B9B5-BE18794A62DE?shapeType=BACKGROUND" paint-order="stroke fill markers" d=" M 0 0 M 444 224 C 444 263.9 434.2 300.8 414.4 334.5 C 394.7 368.2 368 394.9 334.4 414.5 C 300.79999999999995 434.1 263.9 444 224 444 C 184.10000000000002 444 147.2 434.2 113.5 414.4 C 79.8 394.7 53.1 368 33.5 334.4 C 13.899999999999999 300.79999999999995 4 263.9 4 224 C 4 184.10000000000002 13.8 147.2 33.6 113.5 C 53.400000000000006 79.80000000000001 80.1 53.1 113.6 33.5 C 147.1 13.899999999999999 184.1 4 224 4 C 263.9 4 300.8 13.8 334.5 33.6 C 368.2 53.400000000000006 394.9 80.1 414.5 113.6 C 434.1 147.1 444 184.1 444 224 Z"/></g><g><g transform="matrix(1,0,0,1,0,0)"><g transform="matrix(1,0,0,1,0,0)"><path fill="#a30000" stroke="none" id="_3C5F9193-92C6-48C6-B9B5-BE18794A62DE?shapeType=BORDER&amp;renderType=FILL" paint-order="stroke fill markers" d=" M 0 0 M 224 0 C 100.3 0 0 100.3 0 224 C 0 347.7 100.3 448 224 448 C 347.7 448 448 347.7 448 224 C 448 100.30000000000001 347.7 0 224 0 Z M 0 0 M 224 400 C 126.8 400 48 321.2 48 224 C 48 126.80000000000001 126.8 48 224 48 C 321.2 48 400 126.8 400 224 C 400 321.2 321.2 400 224 400 Z"/></g></g></g></g><g transform="matrix(1,0,0,1,28,61)"/></g><g id="_A3333290-54DD-4BCE-B477-870FC9CC99E6" bpmn2nodeid="_A3333290-54DD-4BCE-B477-870FC9CC99E6" transform="matrix(1,0,0,1,250,134)"><g><path fill="none" stroke="none"/></g><g transform="matrix(0.125,0,0,0.125,0,0)"><g transform="matrix(1,0,0,1,0,0)"><path fill="#e8fae6" stroke="none" id="_A3333290-54DD-4BCE-B477-870FC9CC99E6?shapeType=BACKGROUND" paint-order="stroke fill markers" d=" M 0 0 M 444 224 C 444 263.9 434.2 300.8 414.4 334.5 C 394.7 368.2 368 394.9 334.4 414.5 C 300.79999999999995 434.1 263.9 444 224 444 C 184.10000000000002 444 147.2 434.2 113.5 414.4 C 79.8 394.7 53.1 368 33.5 334.4 C 13.899999999999999 300.79999999999995 4 263.9 4 224 C 4 184.10000000000002 13.8 147.2 33.6 113.5 C 53.400000000000006 79.80000000000001 80.1 53.1 113.6 33.5 C 147.1 13.899999999999999 184.1 4 224 4 C 263.9 4 300.8 13.8 334.5 33.6 C 368.2 53.400000000000006 394.9 80.1 414.5 113.6 C 434.1 147.1 444 184.1 444 224 Z"/></g><g><g transform="matrix(1,0,0,1,0,0)"><g transform="matrix(1,0,0,1,0,0)"><path fill="#4aa241" stroke="none" id="_A3333290-54DD-4BCE-B477-870FC9CC99E6?shapeType=BORDER&amp;renderType=FILL" paint-order="stroke fill markers" d=" M 0 0 M 224 0 C 100.3 0 0 100.3 0 224 C 0 347.7 100.3 448 224 448 C 347.7 448 448 347.7 448 224 C 448 100.30000000000001 347.7 0 224 0 Z M 0 0 M 224 432 C 109.1 432 16 338.9 16 224 C 16 109.10000000000002 109.1 16 224 16 C 338.9 16 432 109.1 432 224 C 432 338.9 338.9 432 224 432 Z"/></g></g></g></g><g transform="matrix(1,0,0,1,28,61)"/></g><g id="_5E024203-9BFD-4FC1-925B-826CA6114BF6" bpmn2nodeid="_5E024203-9BFD-4FC1-925B-826CA6114BF6" transform="matrix(1,0,0,1,1756,270)"><g><path fill="none" stroke="none"/></g><g transform="matrix(0.125,0,0,0.125,0,0)"><g transform="matrix(1,0,0,1,0,0)"><path fill="#fef4ea" stroke="none" id="_5E024203-9BFD-4FC1-925B-826CA6114BF6?shapeType=BACKGROUND" paint-order="stroke fill markers" d=" M 0 0 M 224.4 4.3 C 216.4 4.3 208.4 7.3 202.3 13.399999999999999 L 13.5 202.2 C 1.3000000000000007 214.39999999999998 1.3000000000000007 234.2 13.5 246.39999999999998 L 202.2 435.09999999999997 C 208.29999999999998 441.2 216.39999999999998 444.2 224.29999999999998 444.2 C 232.2 444.2 240.29999999999998 441.2 246.39999999999998 435.09999999999997 L 435.09999999999997 246.39999999999998 C 447.29999999999995 234.2 447.29999999999995 214.39999999999998 435.09999999999997 202.2 L 246.5 13.4 C 240.4 7.3 232.4 4.3 224.4 4.3 L 224.4 4.3 Z"/></g><g><g transform="matrix(1,0,0,1,0,0)"><g transform="matrix(1,0,0,1,0,0)"><path fill="#ec7a08" stroke="none" id="_5E024203-9BFD-4FC1-925B-826CA6114BF6?shapeType=BORDER&amp;renderType=FILL" paint-order="stroke fill markers" d=" M 0 0 M 20.8 212.7 L 213.3 20.2 C 219.60000000000002 13.899999999999999 229.70000000000002 13.899999999999999 235.9 20.2 L 428.4 212.7 C 434.7 219 434.7 229.1 428.4 235.29999999999998 L 235.9 427.8 C 229.6 434.1 219.5 434.1 213.3 427.8 L 20.8 235.3 C 14.5 229.1 14.5 218.9 20.8 212.7 L 20.8 212.7 Z M 0 0 M 0 224 C 0 232.1 3.1 240.3 9.3 246.5 L 201.5 438.7 C 213.9 451.09999999999997 234.1 451.09999999999997 246.5 438.7 L 438.7 246.5 C 444.9 240.3 448 232.1 448 224 C 448 215.9 444.9 207.7 438.7 201.5 L 246.5 9.3 C 234.1 -3.0999999999999996 213.9 -3.0999999999999996 201.5 9.3 L 9.3 201.5 C 3.1 207.7 0 215.9 0 224 L 0 224 Z"/></g></g></g><g><g transform="matrix(1,0,0,1,0,0)"><g transform="matrix(1,0,0,1,0,0)"><path fill="#ec7a08" stroke="none" id="_5E024203-9BFD-4FC1-925B-826CA6114BF6_exclusive" paint-order="stroke fill markers" d=" M 0 0 M 298.2 269.2 C 298.2 272.59999999999997 297.09999999999997 275.3 294.7 277.7 L 277.7 294.7 C 275.3 297.09999999999997 272.59999999999997 298.2 269.2 298.2 C 265.8 298.2 263.09999999999997 297.09999999999997 260.7 294.7 L 224 258 L 187.2 294.8 C 184.79999999999998 297.2 182.1 298.3 178.7 298.3 C 175.29999999999998 298.3 172.6 297.2 170.2 294.8 L 153.2 277.8 C 150.79999999999998 275.40000000000003 149.7 272.7 149.7 269.3 C 149.7 265.90000000000003 150.79999999999998 263.2 153.2 260.8 L 190 224 L 153.2 187.2 C 150.79999999999998 184.79999999999998 149.7 182 149.7 178.7 C 149.7 175.29999999999998 150.79999999999998 172.5 153.2 170.2 L 170.2 153.2 C 172.6 150.79999999999998 175.29999999999998 149.7 178.7 149.7 C 182.1 149.7 184.79999999999998 150.79999999999998 187.2 153.2 L 224 190 L 260.8 153.2 C 263.2 150.79999999999998 265.90000000000003 149.7 269.3 149.7 C 272.7 149.7 275.40000000000003 150.79999999999998 277.8 153.2 L 294.8 170.2 C 297.2 172.5 298.3 175.29999999999998 298.3 178.7 C 298.3 182 297.2 184.79999999999998 294.8 187.2 L 258 224 L 294.8 260.8 C 297.1 263.1 298.2 265.9 298.2 269.2 Z"/></g></g></g></g><g transform="matrix(1,0,0,1,28,61)"/></g><g id="_6FEF4FD1-1EB3-4E99-A622-1F8678C22F3E" bpmn2nodeid="_6FEF4FD1-1EB3-4E99-A622-1F8678C22F3E" transform="matrix(1,0,0,1,1892,247)"><g><path fill="none" stroke="none"/></g><g transform="matrix(1,0,0,1,0,0)"><path fill="#ffffff" stroke="none" id="_6FEF4FD1-1EB3-4E99-A622-1F8678C22F3E?shapeType=BACKGROUND" paint-order="stroke fill markers" d=" M 2 0 L 152 0 L 152 0 A 2 2 0 0 1 154 2 L 154 100 L 154 100 A 2 2 0 0 1 152 102 L 2 102 L 2 102 A 2 2 0 0 1 0 100 L 0 2 L 0 2.0000000000000004 A 2 2 0 0 1 1.9999999999999996 0 Z"/></g><g transform="matrix(1,0,0,1,0,0)"><path fill="none" stroke="rgb(0,0,0)" id="_6FEF4FD1-1EB3-4E99-A622-1F8678C22F3E?shapeType=BORDER&amp;renderType=STROKE" paint-order="fill stroke markers" d=" M 2 0 L 152 0 L 152 0 A 2 2 0 0 1 154 2 L 154 100 L 154 100 A 2 2 0 0 1 152 102 L 2 102 L 2 102 A 2 2 0 0 1 0 100 L 0 2 L 0 2.0000000000000004 A 2 2 0 0 1 1.9999999999999996 0 Z" stroke-miterlimit="10" stroke-width="1.5" stroke-dasharray=""/></g><g><g transform="matrix(0.06,0,0,0.06,9.4,9.4)"><g transform="matrix(1,0,0,1,0,0)"><path fill="#393f44" stroke="none" id="_6FEF4FD1-1EB3-4E99-A622-1F8678C22F3E_task__shBX__KZA5" paint-order="stroke fill markers" d=" M 0 0 M 16 445.2101 C 16 440.86867 18.784312 431.12906000000004 22.001325 424.21728 C 35.767643 394.6402 77.282944 359.28049 129 333.08362 C 144.51625 325.22398 157.34689 319.96394 167.80739 317.17416 C 171.93153 316.07426 175.72913 314.41389999999996 176.5251 313.36265 C 178.89361 310.23449999999997 180.91404 302.90781 181.72673 294.5 L 182.5 286.5 L 178.50715 283.45457 C 166.30327 274.14645 154.2837 251.67767 148.03953 226.5 C 145.61086 216.70715 145.05603000000002 215.46246 142.98364 215.1579 C 141.70332000000002 214.96974 138.08302 212.24302 134.93852 209.09852 C 123.23314 197.39314000000002 116.89146000000001 177.37556 121.43982000000001 166.48978 C 123.00204000000001 162.75088 128.15457 159.00970999999998 131.75 159.00374 C 134.44781 158.99974 134.47062 158.60296 132.91375 138.78796 C 130.92658 113.4962 134.27903 92.26542699999999 143.13217 74.075676 C 152.23162 55.379835 167.56889 42.88208 189.04934 36.659507000000005 C 210.20334 30.531504000000005 237.79666 30.531504000000005 258.95065999999997 36.659507000000005 C 300.04166 48.562968000000005 318.95842 83.80634 314.95504999999997 141 C 314.31982999999997 150.075 313.62402 157.78816 313.4088 158.14035 C 313.19359 158.49254000000002 314.57532 159.07295000000002 316.47931 159.43014000000002 C 328.92867 161.76565000000002 330.98619 177.01772000000003 321.49638 196.62092 C 316.90319 206.10912000000002 309.35724 214.50797 304.81732 215.18517000000003 C 303.02259 215.45289000000002 302.2931 217.14618000000002 299.94277999999997 226.50000000000003 C 296.65948 239.56693 294.47402 245.30522000000002 287.94764 257.99534000000006 C 282.49071999999995 268.60596000000004 273.03466 281.10922000000005 268.10756999999995 284.2288300000001 L 264.87062 286.27832000000006 L 265.51815999999997 292.88916000000006 C 266.34490999999997 301.32961000000006 268.63948999999997 309.8706000000001 270.87735999999995 312.83742000000007 C 272.06735 314.4150200000001 275.00244999999995 315.78963000000005 280.0630699999999 317.13941000000005 C 291.06929999999994 320.0750300000001 303.61700999999994 325.27420000000006 320.99999999999994 334.10171 C 369.81470999999993 358.89104000000003 410.84810999999996 393.75797 425.03216 422.5 C 429.06985999999995 430.68183 432 440.23198 432 445.2101 L 432 448 L 224 448 L 16 448 L 16 445.2101 Z"/></g></g></g><g transform="matrix(1,0,0,1,4.039999999999992,13.680000000000007)"><g transform="matrix(0.04,0,0,0.04,63.36,69.12)"><g transform="matrix(1,0,0,1,0,0)"><path fill="none" stroke="none"/></g><g transform="matrix(1,0,0,1,0,0)"><path fill="none" stroke="none"/></g></g></g><g transform="matrix(1,0,0,1,35,13.5)"><text fill="#000000" stroke="none" font-family="Open Sans" font-size="12pt" font-style="normal" font-weight="normal" text-decoration="normal" x="54.5703125" y="12" text-anchor="middle" dominant-baseline="alphabetic">  Attach date    </text><text fill="#000000" stroke="none" font-family="Open Sans" font-size="12pt" font-style="normal" font-weight="normal" text-decoration="normal" x="54.5703125" y="27" text-anchor="middle" dominant-baseline="alphabetic">      and set       </text><text fill="#000000" stroke="none" font-family="Open Sans" font-size="12pt" font-style="normal" font-weight="normal" text-decoration="normal" x="54.5703125" y="42" text-anchor="middle" dominant-baseline="alphabetic">"isPublished = </text><text fill="#000000" stroke="none" font-family="Open Sans" font-size="12pt" font-style="normal" font-weight="normal" text-decoration="normal" x="54.5703125" y="57" text-anchor="middle" dominant-baseline="alphabetic">     true"  in       </text><text fill="#000000" stroke="none" font-family="Open Sans" font-size="12pt" font-style="normal" font-weight="normal" text-decoration="normal" x="54.5703125" y="72" text-anchor="middle" dominant-baseline="alphabetic">       article        </text></g></g><g id="_D5657C36-A544-42AC-9459-3646C4C487C8" bpmn2nodeid="_D5657C36-A544-42AC-9459-3646C4C487C8" transform="matrix(1,0,0,1,2065,429)"><g><path fill="none" stroke="none"/></g><g transform="matrix(0.125,0,0,0.125,0,0)"><g transform="matrix(1,0,0,1,0,0)"><path fill="#fce7e7" stroke="none" id="_D5657C36-A544-42AC-9459-3646C4C487C8?shapeType=BACKGROUND" paint-order="stroke fill markers" d=" M 0 0 M 444 224 C 444 263.9 434.2 300.8 414.4 334.5 C 394.7 368.2 368 394.9 334.4 414.5 C 300.79999999999995 434.1 263.9 444 224 444 C 184.10000000000002 444 147.2 434.2 113.5 414.4 C 79.8 394.7 53.1 368 33.5 334.4 C 13.899999999999999 300.79999999999995 4 263.9 4 224 C 4 184.10000000000002 13.8 147.2 33.6 113.5 C 53.400000000000006 79.80000000000001 80.1 53.1 113.6 33.5 C 147.1 13.899999999999999 184.1 4 224 4 C 263.9 4 300.8 13.8 334.5 33.6 C 368.2 53.400000000000006 394.9 80.1 414.5 113.6 C 434.1 147.1 444 184.1 444 224 Z"/></g><g><g transform="matrix(1,0,0,1,0,0)"><g transform="matrix(1,0,0,1,0,0)"><path fill="#a30000" stroke="none" id="_D5657C36-A544-42AC-9459-3646C4C487C8?shapeType=BORDER&amp;renderType=FILL" paint-order="stroke fill markers" d=" M 0 0 M 224 0 C 100.3 0 0 100.3 0 224 C 0 347.7 100.3 448 224 448 C 347.7 448 448 347.7 448 224 C 448 100.30000000000001 347.7 0 224 0 Z M 0 0 M 224 400 C 126.8 400 48 321.2 48 224 C 48 126.80000000000001 126.8 48 224 48 C 321.2 48 400 126.8 400 224 C 400 321.2 321.2 400 224 400 Z"/></g></g></g></g><g transform="matrix(1,0,0,1,28,61)"/></g><g id="_B9077162-BDA5-4C02-A8F9-A71524BD273A" bpmn2nodeid="_B9077162-BDA5-4C02-A8F9-A71524BD273A"><g><path fill="none" stroke="#000000" paint-order="fill stroke markers" d=" M 306 162 L 451 162" stroke-miterlimit="10" stroke-dasharray=""/></g><g transform="matrix(1,0,0,1,306,162)"/><g transform="matrix(6.123233995736766e-17,1,-1,6.123233995736766e-17,466,157)"><path fill="#000000" stroke="#000000" paint-order="fill stroke markers" d=" M 10 15 L 0 15 L 5 0 Z" stroke-miterlimit="10" stroke-dasharray=""/></g><g transform="matrix(1,0,0,1,306,152)"/></g><g id="_0035955E-7E8E-495D-8DC5-2DEFD58061DA" bpmn2nodeid="_0035955E-7E8E-495D-8DC5-2DEFD58061DA"><g><path fill="none" stroke="#000000" paint-order="fill stroke markers" d=" M 1784 326 L 1784 414" stroke-miterlimit="10" stroke-dasharray=""/></g><g transform="matrix(1,0,0,1,1784,326)"/><g transform="matrix(-1,1.2246467991473532e-16,-1.2246467991473532e-16,-1,1789,429)"><path fill="#000000" stroke="#000000" paint-order="fill stroke markers" d=" M 10 15 L 0 15 L 5 0 Z" stroke-miterlimit="10" stroke-dasharray=""/></g><g transform="matrix(1,0,0,1,1794,377.5)"/></g><g id="_1A8F29D7-555A-4514-B56F-EE43179B52E3" bpmn2nodeid="_1A8F29D7-555A-4514-B56F-EE43179B52E3"><g><path fill="none" stroke="#000000" paint-order="fill stroke markers" d=" M 1861 480 L 2050.0944365564937 458.68052921176786" stroke-miterlimit="10" stroke-dasharray=""/></g><g transform="matrix(1,0,0,1,1861,480)"/><g transform="matrix(0.11203528078452545,0.9937042295670944,-0.9937042295670944,0.11203528078452545,2064.4398235960775,452.0314788521645)"><path fill="#000000" stroke="#000000" paint-order="fill stroke markers" d=" M 10 15 L 0 15 L 5 0 Z" stroke-miterlimit="10" stroke-dasharray=""/></g><g transform="matrix(1,0,0,1,1864.7499298511357,458.56295770432905)"/></g><g id="_6CDCD7A8-48EA-471A-8519-7524EE0C27B3" bpmn2nodeid="_6CDCD7A8-48EA-471A-8519-7524EE0C27B3"><g><path fill="none" stroke="#000000" paint-order="fill stroke markers" d=" M 1812 298 L 1877 298" stroke-miterlimit="10" stroke-dasharray=""/></g><g transform="matrix(1,0,0,1,1812,298)"/><g transform="matrix(6.123233995736766e-17,1,-1,6.123233995736766e-17,1892,293)"><path fill="#000000" stroke="#000000" paint-order="fill stroke markers" d=" M 10 15 L 0 15 L 5 0 Z" stroke-miterlimit="10" stroke-dasharray=""/></g><g transform="matrix(1,0,0,1,1812,288)"/></g><g id="_CFBB7344-7357-4F8E-84EB-C395D37F3229" bpmn2nodeid="_CFBB7344-7357-4F8E-84EB-C395D37F3229"><g><path fill="none" stroke="#000000" paint-order="fill stroke markers" d=" M 2046 298 L 2111 298" stroke-miterlimit="10" stroke-dasharray=""/></g><g transform="matrix(1,0,0,1,2046,298)"/><g transform="matrix(6.123233995736766e-17,1,-1,6.123233995736766e-17,2126,293)"><path fill="#000000" stroke="#000000" paint-order="fill stroke markers" d=" M 10 15 L 0 15 L 5 0 Z" stroke-miterlimit="10" stroke-dasharray=""/></g><g transform="matrix(1,0,0,1,2046,288)"/></g><g id="_397867D8-D1D7-42EC-A2D3-FE080B0F1AB6" bpmn2nodeid="_397867D8-D1D7-42EC-A2D3-FE080B0F1AB6"><g><path fill="none" stroke="#000000" paint-order="fill stroke markers" d=" M 278 190 L 278 225" stroke-miterlimit="10" stroke-dasharray="2,6"/></g><g transform="matrix(1,0,0,1,278,190)"/><g transform="matrix(1,0,0,1,278,225)"/><g transform="matrix(1,0,0,1,288,207.5)"/></g><g transform="matrix(1,0,0,1,228,225)"/><g transform="matrix(1,0,0,1,1707,429)"/><g transform="matrix(1,0,0,1,2126,270)"/><g transform="matrix(1,0,0,1,250,134)"/><g transform="matrix(1,0,0,1,1756,270)"/><g transform="matrix(1,0,0,1,1892,247)"/><g transform="matrix(1,0,0,1,2065,429)"/><g transform="matrix(1,0,0,1,466,111)"/><g id="_B618D1E4-F40C-4B7E-8D1A-FE46A5FCB7B1" bpmn2nodeid="_B618D1E4-F40C-4B7E-8D1A-FE46A5FCB7B1" transform="matrix(1,0,0,1,852,-3)"><g><path fill="none" stroke="none"/></g><g transform="matrix(1,0,0,1,0,0)"><path fill="#ffffff" stroke="none" id="_B618D1E4-F40C-4B7E-8D1A-FE46A5FCB7B1?shapeType=BACKGROUND" paint-order="stroke fill markers" d=" M 2 0 L 152 0 L 152 0 A 2 2 0 0 1 154 2 L 154 100 L 154 100 A 2 2 0 0 1 152 102 L 2 102 L 2 102 A 2 2 0 0 1 0 100 L 0 2 L 0 2.0000000000000004 A 2 2 0 0 1 1.9999999999999996 0 Z"/></g><g transform="matrix(1,0,0,1,0,0)"><path fill="none" stroke="rgb(0,0,0)" id="_B618D1E4-F40C-4B7E-8D1A-FE46A5FCB7B1?shapeType=BORDER&amp;renderType=STROKE" paint-order="fill stroke markers" d=" M 2 0 L 152 0 L 152 0 A 2 2 0 0 1 154 2 L 154 100 L 154 100 A 2 2 0 0 1 152 102 L 2 102 L 2 102 A 2 2 0 0 1 0 100 L 0 2 L 0 2.0000000000000004 A 2 2 0 0 1 1.9999999999999996 0 Z" stroke-miterlimit="10" stroke-width="1.5" stroke-dasharray=""/></g><g><g transform="matrix(0.06,0,0,0.06,9.4,9.4)"><g transform="matrix(1,0,0,1,0,0)"><path fill="#393f44" stroke="none" id="_B618D1E4-F40C-4B7E-8D1A-FE46A5FCB7B1_task__Ua3n__3QFT" paint-order="stroke fill markers" d=" M 0 0 M 197.3 130.2 C 194.4 127.29999999999998 189.60000000000002 127.29999999999998 186.70000000000002 130.2 L 130.20000000000002 186.7 C 127.30000000000001 189.6 127.30000000000001 194.39999999999998 130.20000000000002 197.29999999999998 L 186.70000000000002 253.79999999999998 C 188.10000000000002 255.29999999999998 190.10000000000002 255.99999999999997 192.00000000000003 255.99999999999997 C 193.90000000000003 255.99999999999997 195.90000000000003 255.29999999999998 197.30000000000004 253.69999999999996 C 200.20000000000005 250.79999999999995 200.20000000000005 245.99999999999997 197.30000000000004 243.09999999999997 L 146.2 192 L 197.29999999999998 140.8 C 200.2 137.9 200.2 133.1 197.3 130.2 Z"/></g><g transform="matrix(1,0,0,1,0,0)"><path fill="#393f44" stroke="none" id="_B618D1E4-F40C-4B7E-8D1A-FE46A5FCB7B1_task__Ua3n__REIR" paint-order="stroke fill markers" d=" M 0 0 M 261.3 130.2 C 258.40000000000003 127.29999999999998 253.60000000000002 127.29999999999998 250.70000000000002 130.2 C 247.8 133.1 247.8 137.89999999999998 250.70000000000002 140.79999999999998 L 301.8 191.89999999999998 L 250.7 243 C 247.79999999999998 245.9 247.79999999999998 250.7 250.7 253.6 C 252.1 255.29999999999998 254.1 256 256 256 C 257.9 256 259.9 255.3 261.3 253.8 L 317.8 197.3 C 320.7 194.4 320.7 189.60000000000002 317.8 186.70000000000002 L 261.3 130.2 Z"/></g><g transform="matrix(1,0,0,1,0,0)"><path fill="#393f44" stroke="none" id="_B618D1E4-F40C-4B7E-8D1A-FE46A5FCB7B1_task__Ua3n__NQH7" paint-order="stroke fill markers" d=" M 0 0 M 400 32 C 400 32 152.8 32 128 32 C 62 32 64 96 64 96 L 64 288 L 1 288 C 1 288 -4 416 78 416 L 320 416 C 368 416 384 368 384 336 C 384 314.2 384 224.4 384 160 L 448 160 L 448 96 C 448 96 449 32 400 32 Z M 0 0 M 78 383.9 C 68.5 383.9 61.6 381.09999999999997 55.5 374.9 C 43.4 362.4 37.5 339.59999999999997 34.9 320 L 256.9 320 C 257.09999999999997 322.7 257.29999999999995 325.4 257.59999999999997 328.2 C 259.99999999999994 351.59999999999997 264.7 370.09999999999997 271.9 383.9 L 78 383.9 L 78 383.9 Z M 0 0 M 352 336 C 352 345.9 349.6 360.3 342.9 371 C 337.2 380.1 330.4 384 320 384 C 285 384 288 288 288 288 L 96 288 L 96 96 L 96 95.9 L 96 95.10000000000001 C 96 90.60000000000001 97.6 78.30000000000001 104.7 71.20000000000002 C 106.5 69.40000000000002 111.9 64.00000000000001 128 64.00000000000001 L 356.5 64.00000000000001 C 354.4 72.80000000000001 352.8 81.80000000000001 352.2 89.9 C 352.2 90.5 352.09999999999997 91.10000000000001 352.09999999999997 91.7 C 352.09999999999997 92 352.09999999999997 92.3 352.09999999999997 92.60000000000001 C 352 94.8 352 96 352 96 L 352 160 L 352 336 Z"/></g></g></g><g transform="matrix(1,0,0,1,35,36)"><text fill="#000000" stroke="none" font-family="Open Sans" font-size="12pt" font-style="normal" font-weight="normal" text-decoration="normal" x="54.34375" y="12" text-anchor="middle" dominant-baseline="alphabetic">       Attach        </text><text fill="#000000" stroke="none" font-family="Open Sans" font-size="12pt" font-style="normal" font-weight="normal" text-decoration="normal" x="54.34375" y="27" text-anchor="middle" dominant-baseline="alphabetic">Formula Script</text></g></g><g id="_051B6D9B-D077-41AF-95D1-396A838FB762" bpmn2nodeid="_051B6D9B-D077-41AF-95D1-396A838FB762" transform="matrix(1,0,0,1,1087,-3)"><g><path fill="none" stroke="none"/></g><g transform="matrix(1,0,0,1,0,0)"><path fill="#ffffff" stroke="none" id="_051B6D9B-D077-41AF-95D1-396A838FB762?shapeType=BACKGROUND" paint-order="stroke fill markers" d=" M 2 0 L 152 0 L 152 0 A 2 2 0 0 1 154 2 L 154 100 L 154 100 A 2 2 0 0 1 152 102 L 2 102 L 2 102 A 2 2 0 0 1 0 100 L 0 2 L 0 2.0000000000000004 A 2 2 0 0 1 1.9999999999999996 0 Z"/></g><g transform="matrix(1,0,0,1,0,0)"><path fill="none" stroke="rgb(0,0,0)" id="_051B6D9B-D077-41AF-95D1-396A838FB762?shapeType=BORDER&amp;renderType=STROKE" paint-order="fill stroke markers" d=" M 2 0 L 152 0 L 152 0 A 2 2 0 0 1 154 2 L 154 100 L 154 100 A 2 2 0 0 1 152 102 L 2 102 L 2 102 A 2 2 0 0 1 0 100 L 0 2 L 0 2.0000000000000004 A 2 2 0 0 1 1.9999999999999996 0 Z" stroke-miterlimit="10" stroke-width="1.5" stroke-dasharray=""/></g><g><g transform="matrix(0.06,0,0,0.06,9.4,9.4)"><g transform="matrix(1,0,0,1,0,0)"><path fill="#393f44" stroke="none" id="_051B6D9B-D077-41AF-95D1-396A838FB762_task__Ua3n__3QFT" paint-order="stroke fill markers" d=" M 0 0 M 197.3 130.2 C 194.4 127.29999999999998 189.60000000000002 127.29999999999998 186.70000000000002 130.2 L 130.20000000000002 186.7 C 127.30000000000001 189.6 127.30000000000001 194.39999999999998 130.20000000000002 197.29999999999998 L 186.70000000000002 253.79999999999998 C 188.10000000000002 255.29999999999998 190.10000000000002 255.99999999999997 192.00000000000003 255.99999999999997 C 193.90000000000003 255.99999999999997 195.90000000000003 255.29999999999998 197.30000000000004 253.69999999999996 C 200.20000000000005 250.79999999999995 200.20000000000005 245.99999999999997 197.30000000000004 243.09999999999997 L 146.2 192 L 197.29999999999998 140.8 C 200.2 137.9 200.2 133.1 197.3 130.2 Z"/></g><g transform="matrix(1,0,0,1,0,0)"><path fill="#393f44" stroke="none" id="_051B6D9B-D077-41AF-95D1-396A838FB762_task__Ua3n__REIR" paint-order="stroke fill markers" d=" M 0 0 M 261.3 130.2 C 258.40000000000003 127.29999999999998 253.60000000000002 127.29999999999998 250.70000000000002 130.2 C 247.8 133.1 247.8 137.89999999999998 250.70000000000002 140.79999999999998 L 301.8 191.89999999999998 L 250.7 243 C 247.79999999999998 245.9 247.79999999999998 250.7 250.7 253.6 C 252.1 255.29999999999998 254.1 256 256 256 C 257.9 256 259.9 255.3 261.3 253.8 L 317.8 197.3 C 320.7 194.4 320.7 189.60000000000002 317.8 186.70000000000002 L 261.3 130.2 Z"/></g><g transform="matrix(1,0,0,1,0,0)"><path fill="#393f44" stroke="none" id="_051B6D9B-D077-41AF-95D1-396A838FB762_task__Ua3n__NQH7" paint-order="stroke fill markers" d=" M 0 0 M 400 32 C 400 32 152.8 32 128 32 C 62 32 64 96 64 96 L 64 288 L 1 288 C 1 288 -4 416 78 416 L 320 416 C 368 416 384 368 384 336 C 384 314.2 384 224.4 384 160 L 448 160 L 448 96 C 448 96 449 32 400 32 Z M 0 0 M 78 383.9 C 68.5 383.9 61.6 381.09999999999997 55.5 374.9 C 43.4 362.4 37.5 339.59999999999997 34.9 320 L 256.9 320 C 257.09999999999997 322.7 257.29999999999995 325.4 257.59999999999997 328.2 C 259.99999999999994 351.59999999999997 264.7 370.09999999999997 271.9 383.9 L 78 383.9 L 78 383.9 Z M 0 0 M 352 336 C 352 345.9 349.6 360.3 342.9 371 C 337.2 380.1 330.4 384 320 384 C 285 384 288 288 288 288 L 96 288 L 96 96 L 96 95.9 L 96 95.10000000000001 C 96 90.60000000000001 97.6 78.30000000000001 104.7 71.20000000000002 C 106.5 69.40000000000002 111.9 64.00000000000001 128 64.00000000000001 L 356.5 64.00000000000001 C 354.4 72.80000000000001 352.8 81.80000000000001 352.2 89.9 C 352.2 90.5 352.09999999999997 91.10000000000001 352.09999999999997 91.7 C 352.09999999999997 92 352.09999999999997 92.3 352.09999999999997 92.60000000000001 C 352 94.8 352 96 352 96 L 352 160 L 352 336 Z"/></g></g></g><g transform="matrix(1,0,0,1,35,36)"><text fill="#000000" stroke="none" font-family="Open Sans" font-size="12pt" font-style="normal" font-weight="normal" text-decoration="normal" x="51.609375" y="12" text-anchor="middle" dominant-baseline="alphabetic">Attach Group </text><text fill="#000000" stroke="none" font-family="Open Sans" font-size="12pt" font-style="normal" font-weight="normal" text-decoration="normal" x="51.609375" y="27" text-anchor="middle" dominant-baseline="alphabetic">       Script        </text></g></g><g transform="matrix(1,0,0,1,1087,-3)"/><g id="_64653219-0849-47A4-918C-B5D92DFFD020" bpmn2nodeid="_64653219-0849-47A4-918C-B5D92DFFD020" transform="matrix(1,0,0,1,1022,497)"><g><path fill="none" stroke="none"/></g><g transform="matrix(1,0,0,1,0,0)"><path fill="#ffffff" stroke="none" id="_64653219-0849-47A4-918C-B5D92DFFD020?shapeType=BACKGROUND" paint-order="stroke fill markers" d=" M 2 0 L 152 0 L 152 0 A 2 2 0 0 1 154 2 L 154 100 L 154 100 A 2 2 0 0 1 152 102 L 2 102 L 2 102 A 2 2 0 0 1 0 100 L 0 2 L 0 2.0000000000000004 A 2 2 0 0 1 1.9999999999999996 0 Z"/></g><g transform="matrix(1,0,0,1,0,0)"><path fill="none" stroke="rgb(0,0,0)" id="_64653219-0849-47A4-918C-B5D92DFFD020?shapeType=BORDER&amp;renderType=STROKE" paint-order="fill stroke markers" d=" M 2 0 L 152 0 L 152 0 A 2 2 0 0 1 154 2 L 154 100 L 154 100 A 2 2 0 0 1 152 102 L 2 102 L 2 102 A 2 2 0 0 1 0 100 L 0 2 L 0 2.0000000000000004 A 2 2 0 0 1 1.9999999999999996 0 Z" stroke-miterlimit="10" stroke-width="1.5" stroke-dasharray=""/></g><g><g transform="matrix(0.06,0,0,0.06,9.4,9.4)"><g transform="matrix(1,0,0,1,0,0)"><path fill="#393f44" stroke="none" id="_64653219-0849-47A4-918C-B5D92DFFD020_task__shBX__KZA5" paint-order="stroke fill markers" d=" M 0 0 M 16 445.2101 C 16 440.86867 18.784312 431.12906000000004 22.001325 424.21728 C 35.767643 394.6402 77.282944 359.28049 129 333.08362 C 144.51625 325.22398 157.34689 319.96394 167.80739 317.17416 C 171.93153 316.07426 175.72913 314.41389999999996 176.5251 313.36265 C 178.89361 310.23449999999997 180.91404 302.90781 181.72673 294.5 L 182.5 286.5 L 178.50715 283.45457 C 166.30327 274.14645 154.2837 251.67767 148.03953 226.5 C 145.61086 216.70715 145.05603000000002 215.46246 142.98364 215.1579 C 141.70332000000002 214.96974 138.08302 212.24302 134.93852 209.09852 C 123.23314 197.39314000000002 116.89146000000001 177.37556 121.43982000000001 166.48978 C 123.00204000000001 162.75088 128.15457 159.00970999999998 131.75 159.00374 C 134.44781 158.99974 134.47062 158.60296 132.91375 138.78796 C 130.92658 113.4962 134.27903 92.26542699999999 143.13217 74.075676 C 152.23162 55.379835 167.56889 42.88208 189.04934 36.659507000000005 C 210.20334 30.531504000000005 237.79666 30.531504000000005 258.95065999999997 36.659507000000005 C 300.04166 48.562968000000005 318.95842 83.80634 314.95504999999997 141 C 314.31982999999997 150.075 313.62402 157.78816 313.4088 158.14035 C 313.19359 158.49254000000002 314.57532 159.07295000000002 316.47931 159.43014000000002 C 328.92867 161.76565000000002 330.98619 177.01772000000003 321.49638 196.62092 C 316.90319 206.10912000000002 309.35724 214.50797 304.81732 215.18517000000003 C 303.02259 215.45289000000002 302.2931 217.14618000000002 299.94277999999997 226.50000000000003 C 296.65948 239.56693 294.47402 245.30522000000002 287.94764 257.99534000000006 C 282.49071999999995 268.60596000000004 273.03466 281.10922000000005 268.10756999999995 284.2288300000001 L 264.87062 286.27832000000006 L 265.51815999999997 292.88916000000006 C 266.34490999999997 301.32961000000006 268.63948999999997 309.8706000000001 270.87735999999995 312.83742000000007 C 272.06735 314.4150200000001 275.00244999999995 315.78963000000005 280.0630699999999 317.13941000000005 C 291.06929999999994 320.0750300000001 303.61700999999994 325.27420000000006 320.99999999999994 334.10171 C 369.81470999999993 358.89104000000003 410.84810999999996 393.75797 425.03216 422.5 C 429.06985999999995 430.68183 432 440.23198 432 445.2101 L 432 448 L 224 448 L 16 448 L 16 445.2101 Z"/></g></g></g><g transform="matrix(1,0,0,1,4.039999999999992,13.680000000000007)"><g transform="matrix(0.04,0,0,0.04,63.36,69.12)"><g transform="matrix(1,0,0,1,0,0)"><path fill="none" stroke="none"/></g><g transform="matrix(1,0,0,1,0,0)"><path fill="none" stroke="none"/></g></g></g><g transform="matrix(1,0,0,1,35,36)"><text fill="#000000" stroke="none" font-family="Open Sans" font-size="12pt" font-style="normal" font-weight="normal" text-decoration="normal" x="54.7421875" y="12" text-anchor="middle" dominant-baseline="alphabetic">Attach links to </text><text fill="#000000" stroke="none" font-family="Open Sans" font-size="12pt" font-style="normal" font-weight="normal" text-decoration="normal" x="54.7421875" y="27" text-anchor="middle" dominant-baseline="alphabetic">       article        </text></g></g><g transform="matrix(1,0,0,1,1022,497)"/><g id="_8F45E24C-BA1E-4450-A114-84F6EA7A34B3" bpmn2nodeid="_8F45E24C-BA1E-4450-A114-84F6EA7A34B3" transform="matrix(1,0,0,1,651,497)"><g><path fill="none" stroke="none"/></g><g transform="matrix(1,0,0,1,0,0)"><path fill="#ffffff" stroke="none" id="_8F45E24C-BA1E-4450-A114-84F6EA7A34B3?shapeType=BACKGROUND" paint-order="stroke fill markers" d=" M 2 0 L 152 0 L 152 0 A 2 2 0 0 1 154 2 L 154 100 L 154 100 A 2 2 0 0 1 152 102 L 2 102 L 2 102 A 2 2 0 0 1 0 100 L 0 2 L 0 2.0000000000000004 A 2 2 0 0 1 1.9999999999999996 0 Z"/></g><g transform="matrix(1,0,0,1,0,0)"><path fill="none" stroke="rgb(0,0,0)" id="_8F45E24C-BA1E-4450-A114-84F6EA7A34B3?shapeType=BORDER&amp;renderType=STROKE" paint-order="fill stroke markers" d=" M 2 0 L 152 0 L 152 0 A 2 2 0 0 1 154 2 L 154 100 L 154 100 A 2 2 0 0 1 152 102 L 2 102 L 2 102 A 2 2 0 0 1 0 100 L 0 2 L 0 2.0000000000000004 A 2 2 0 0 1 1.9999999999999996 0 Z" stroke-miterlimit="10" stroke-width="1.5" stroke-dasharray=""/></g><g><g transform="matrix(0.06,0,0,0.06,9.4,9.4)"><g transform="matrix(1,0,0,1,0,0)"><path fill="#393f44" stroke="none" id="_8F45E24C-BA1E-4450-A114-84F6EA7A34B3_task__shBX__KZA5" paint-order="stroke fill markers" d=" M 0 0 M 16 445.2101 C 16 440.86867 18.784312 431.12906000000004 22.001325 424.21728 C 35.767643 394.6402 77.282944 359.28049 129 333.08362 C 144.51625 325.22398 157.34689 319.96394 167.80739 317.17416 C 171.93153 316.07426 175.72913 314.41389999999996 176.5251 313.36265 C 178.89361 310.23449999999997 180.91404 302.90781 181.72673 294.5 L 182.5 286.5 L 178.50715 283.45457 C 166.30327 274.14645 154.2837 251.67767 148.03953 226.5 C 145.61086 216.70715 145.05603000000002 215.46246 142.98364 215.1579 C 141.70332000000002 214.96974 138.08302 212.24302 134.93852 209.09852 C 123.23314 197.39314000000002 116.89146000000001 177.37556 121.43982000000001 166.48978 C 123.00204000000001 162.75088 128.15457 159.00970999999998 131.75 159.00374 C 134.44781 158.99974 134.47062 158.60296 132.91375 138.78796 C 130.92658 113.4962 134.27903 92.26542699999999 143.13217 74.075676 C 152.23162 55.379835 167.56889 42.88208 189.04934 36.659507000000005 C 210.20334 30.531504000000005 237.79666 30.531504000000005 258.95065999999997 36.659507000000005 C 300.04166 48.562968000000005 318.95842 83.80634 314.95504999999997 141 C 314.31982999999997 150.075 313.62402 157.78816 313.4088 158.14035 C 313.19359 158.49254000000002 314.57532 159.07295000000002 316.47931 159.43014000000002 C 328.92867 161.76565000000002 330.98619 177.01772000000003 321.49638 196.62092 C 316.90319 206.10912000000002 309.35724 214.50797 304.81732 215.18517000000003 C 303.02259 215.45289000000002 302.2931 217.14618000000002 299.94277999999997 226.50000000000003 C 296.65948 239.56693 294.47402 245.30522000000002 287.94764 257.99534000000006 C 282.49071999999995 268.60596000000004 273.03466 281.10922000000005 268.10756999999995 284.2288300000001 L 264.87062 286.27832000000006 L 265.51815999999997 292.88916000000006 C 266.34490999999997 301.32961000000006 268.63948999999997 309.8706000000001 270.87735999999995 312.83742000000007 C 272.06735 314.4150200000001 275.00244999999995 315.78963000000005 280.0630699999999 317.13941000000005 C 291.06929999999994 320.0750300000001 303.61700999999994 325.27420000000006 320.99999999999994 334.10171 C 369.81470999999993 358.89104000000003 410.84810999999996 393.75797 425.03216 422.5 C 429.06985999999995 430.68183 432 440.23198 432 445.2101 L 432 448 L 224 448 L 16 448 L 16 445.2101 Z"/></g></g></g><g transform="matrix(1,0,0,1,4.039999999999992,13.680000000000007)"><g transform="matrix(0.04,0,0,0.04,63.36,69.12)"><g transform="matrix(1,0,0,1,0,0)"><path fill="none" stroke="none"/></g><g transform="matrix(1,0,0,1,0,0)"><path fill="none" stroke="none"/></g></g></g><g transform="matrix(1,0,0,1,35,36)"><text fill="#000000" stroke="none" font-family="Open Sans" font-size="12pt" font-style="normal" font-weight="normal" text-decoration="normal" x="56.2578125" y="12" text-anchor="middle" dominant-baseline="alphabetic">Attach price to </text><text fill="#000000" stroke="none" font-family="Open Sans" font-size="12pt" font-style="normal" font-weight="normal" text-decoration="normal" x="56.2578125" y="27" text-anchor="middle" dominant-baseline="alphabetic">        article        </text></g></g><g id="_0A581D22-674E-461E-BF7F-D9CF94DFEC6A" bpmn2nodeid="_0A581D22-674E-461E-BF7F-D9CF94DFEC6A"><g><path fill="none" stroke="#000000" paint-order="fill stroke markers" d=" M 805 548 L 1007 548" stroke-miterlimit="10" stroke-dasharray=""/></g><g transform="matrix(1,0,0,1,805,548)"/><g transform="matrix(6.123233995736766e-17,1,-1,6.123233995736766e-17,1022,543)"><path fill="#000000" stroke="#000000" paint-order="fill stroke markers" d=" M 10 15 L 0 15 L 5 0 Z" stroke-miterlimit="10" stroke-dasharray=""/></g><g transform="matrix(1,0,0,1,813.5,538)"/></g><g transform="matrix(1,0,0,1,651,497)"/><g id="_150084FB-8115-4C5E-93B0-D7B611AD7945" bpmn2nodeid="_150084FB-8115-4C5E-93B0-D7B611AD7945" transform="matrix(1,0,0,1,1422,484)"><g><path fill="none" stroke="none"/></g><g transform="matrix(1,0,0,1,0,0)"><path fill="#ffffff" stroke="none" id="_150084FB-8115-4C5E-93B0-D7B611AD7945?shapeType=BACKGROUND" paint-order="stroke fill markers" d=" M 2 0 L 152 0 L 152 0 A 2 2 0 0 1 154 2 L 154 100 L 154 100 A 2 2 0 0 1 152 102 L 2 102 L 2 102 A 2 2 0 0 1 0 100 L 0 2 L 0 2.0000000000000004 A 2 2 0 0 1 1.9999999999999996 0 Z"/></g><g transform="matrix(1,0,0,1,0,0)"><path fill="none" stroke="rgb(0,0,0)" id="_150084FB-8115-4C5E-93B0-D7B611AD7945?shapeType=BORDER&amp;renderType=STROKE" paint-order="fill stroke markers" d=" M 2 0 L 152 0 L 152 0 A 2 2 0 0 1 154 2 L 154 100 L 154 100 A 2 2 0 0 1 152 102 L 2 102 L 2 102 A 2 2 0 0 1 0 100 L 0 2 L 0 2.0000000000000004 A 2 2 0 0 1 1.9999999999999996 0 Z" stroke-miterlimit="10" stroke-width="1.5" stroke-dasharray=""/></g><g><g transform="matrix(0.06,0,0,0.06,9.4,9.4)"><g transform="matrix(1,0,0,1,0,0)"><path fill="#393f44" stroke="none" id="_150084FB-8115-4C5E-93B0-D7B611AD7945_task__shBX__KZA5" paint-order="stroke fill markers" d=" M 0 0 M 16 445.2101 C 16 440.86867 18.784312 431.12906000000004 22.001325 424.21728 C 35.767643 394.6402 77.282944 359.28049 129 333.08362 C 144.51625 325.22398 157.34689 319.96394 167.80739 317.17416 C 171.93153 316.07426 175.72913 314.41389999999996 176.5251 313.36265 C 178.89361 310.23449999999997 180.91404 302.90781 181.72673 294.5 L 182.5 286.5 L 178.50715 283.45457 C 166.30327 274.14645 154.2837 251.67767 148.03953 226.5 C 145.61086 216.70715 145.05603000000002 215.46246 142.98364 215.1579 C 141.70332000000002 214.96974 138.08302 212.24302 134.93852 209.09852 C 123.23314 197.39314000000002 116.89146000000001 177.37556 121.43982000000001 166.48978 C 123.00204000000001 162.75088 128.15457 159.00970999999998 131.75 159.00374 C 134.44781 158.99974 134.47062 158.60296 132.91375 138.78796 C 130.92658 113.4962 134.27903 92.26542699999999 143.13217 74.075676 C 152.23162 55.379835 167.56889 42.88208 189.04934 36.659507000000005 C 210.20334 30.531504000000005 237.79666 30.531504000000005 258.95065999999997 36.659507000000005 C 300.04166 48.562968000000005 318.95842 83.80634 314.95504999999997 141 C 314.31982999999997 150.075 313.62402 157.78816 313.4088 158.14035 C 313.19359 158.49254000000002 314.57532 159.07295000000002 316.47931 159.43014000000002 C 328.92867 161.76565000000002 330.98619 177.01772000000003 321.49638 196.62092 C 316.90319 206.10912000000002 309.35724 214.50797 304.81732 215.18517000000003 C 303.02259 215.45289000000002 302.2931 217.14618000000002 299.94277999999997 226.50000000000003 C 296.65948 239.56693 294.47402 245.30522000000002 287.94764 257.99534000000006 C 282.49071999999995 268.60596000000004 273.03466 281.10922000000005 268.10756999999995 284.2288300000001 L 264.87062 286.27832000000006 L 265.51815999999997 292.88916000000006 C 266.34490999999997 301.32961000000006 268.63948999999997 309.8706000000001 270.87735999999995 312.83742000000007 C 272.06735 314.4150200000001 275.00244999999995 315.78963000000005 280.0630699999999 317.13941000000005 C 291.06929999999994 320.0750300000001 303.61700999999994 325.27420000000006 320.99999999999994 334.10171 C 369.81470999999993 358.89104000000003 410.84810999999996 393.75797 425.03216 422.5 C 429.06985999999995 430.68183 432 440.23198 432 445.2101 L 432 448 L 224 448 L 16 448 L 16 445.2101 Z"/></g></g></g><g transform="matrix(1,0,0,1,4.039999999999992,13.680000000000007)"><g transform="matrix(0.04,0,0,0.04,63.36,69.12)"><g transform="matrix(1,0,0,1,0,0)"><path fill="none" stroke="none"/></g><g transform="matrix(1,0,0,1,0,0)"><path fill="none" stroke="none"/></g></g></g><g transform="matrix(1,0,0,1,36.44921875,13.5)"><text fill="#000000" stroke="none" font-family="Open Sans" font-size="12pt" font-style="normal" font-weight="normal" text-decoration="normal" x="40.55078125" y="12" text-anchor="middle" dominant-baseline="alphabetic">Fills in the  </text><text fill="#000000" stroke="none" font-family="Open Sans" font-size="12pt" font-style="normal" font-weight="normal" text-decoration="normal" x="40.55078125" y="27" text-anchor="middle" dominant-baseline="alphabetic">   article:    </text><text fill="#000000" stroke="none" font-family="Open Sans" font-size="12pt" font-style="normal" font-weight="normal" text-decoration="normal" x="40.55078125" y="42" text-anchor="middle" dominant-baseline="alphabetic"> formula,   </text><text fill="#000000" stroke="none" font-family="Open Sans" font-size="12pt" font-style="normal" font-weight="normal" text-decoration="normal" x="40.55078125" y="57" text-anchor="middle" dominant-baseline="alphabetic">group and </text><text fill="#000000" stroke="none" font-family="Open Sans" font-size="12pt" font-style="normal" font-weight="normal" text-decoration="normal" x="40.55078125" y="72" text-anchor="middle" dominant-baseline="alphabetic">  interract  </text></g></g><g id="_A1E155FD-CD40-4A12-A3CA-61EBBBE12DDD" bpmn2nodeid="_A1E155FD-CD40-4A12-A3CA-61EBBBE12DDD"><g><path fill="none" stroke="#000000" paint-order="fill stroke markers" d=" M 1176 548 L 1407.0209011071508 535.7915783967766" stroke-miterlimit="10" stroke-dasharray=""/></g><g transform="matrix(1,0,0,1,1176,548)"/><g transform="matrix(0.0527718931184384,0.9986065928566145,-0.9986065928566145,0.0527718931184384,1421.7361405344077,530.0069670357169)"><path fill="#000000" stroke="#000000" paint-order="fill stroke markers" d=" M 10 15 L 0 15 L 5 0 Z" stroke-miterlimit="10" stroke-dasharray=""/></g><g transform="matrix(1,0,0,1,1199.6670596455228,531.5139340714338)"/></g><g id="_9824B07A-7E41-40EE-8E6E-DF5BB33BF86E" bpmn2nodeid="_9824B07A-7E41-40EE-8E6E-DF5BB33BF86E"><g><path fill="none" stroke="#000000" paint-order="fill stroke markers" d=" M 1554.3037974683543 484 L 1744.9730146876198 308.1688541596658" stroke-miterlimit="10" stroke-dasharray=""/></g><g transform="matrix(1,0,0,1,1554.3037974683543,484)"/><g transform="matrix(0.6779236106443829,0.7351323541586802,-0.7351323541586802,0.6779236106443829,1752.610381946778,294.3243382292066)"><path fill="#000000" stroke="#000000" paint-order="fill stroke markers" d=" M 10 15 L 0 15 L 5 0 Z" stroke-miterlimit="10" stroke-dasharray=""/></g><g transform="matrix(1,0,0,1,1588.4178994247532,383.6486764584132)"/></g><g transform="matrix(1,0,0,1,1422,484)"/><g id="_C5B19B04-6CC3-4D0A-B863-FF33E61B947F" bpmn2nodeid="_C5B19B04-6CC3-4D0A-B863-FF33E61B947F" transform="matrix(1,0,0,1,852,203)"><g><path fill="none" stroke="none"/></g><g transform="matrix(1,0,0,1,0,0)"><path fill="#ffffff" stroke="none" id="_C5B19B04-6CC3-4D0A-B863-FF33E61B947F?shapeType=BACKGROUND" paint-order="stroke fill markers" d=" M 2 0 L 152 0 L 152 0 A 2 2 0 0 1 154 2 L 154 100 L 154 100 A 2 2 0 0 1 152 102 L 2 102 L 2 102 A 2 2 0 0 1 0 100 L 0 2 L 0 2.0000000000000004 A 2 2 0 0 1 1.9999999999999996 0 Z"/></g><g transform="matrix(1,0,0,1,0,0)"><path fill="none" stroke="rgb(0,0,0)" id="_C5B19B04-6CC3-4D0A-B863-FF33E61B947F?shapeType=BORDER&amp;renderType=STROKE" paint-order="fill stroke markers" d=" M 2 0 L 152 0 L 152 0 A 2 2 0 0 1 154 2 L 154 100 L 154 100 A 2 2 0 0 1 152 102 L 2 102 L 2 102 A 2 2 0 0 1 0 100 L 0 2 L 0 2.0000000000000004 A 2 2 0 0 1 1.9999999999999996 0 Z" stroke-miterlimit="10" stroke-width="1.5" stroke-dasharray=""/></g><g><g transform="matrix(0.06,0,0,0.06,9.4,9.4)"><g transform="matrix(1,0,0,1,0,0)"><path fill="#393f44" stroke="none" id="_C5B19B04-6CC3-4D0A-B863-FF33E61B947F_task__shBX__KZA5" paint-order="stroke fill markers" d=" M 0 0 M 16 445.2101 C 16 440.86867 18.784312 431.12906000000004 22.001325 424.21728 C 35.767643 394.6402 77.282944 359.28049 129 333.08362 C 144.51625 325.22398 157.34689 319.96394 167.80739 317.17416 C 171.93153 316.07426 175.72913 314.41389999999996 176.5251 313.36265 C 178.89361 310.23449999999997 180.91404 302.90781 181.72673 294.5 L 182.5 286.5 L 178.50715 283.45457 C 166.30327 274.14645 154.2837 251.67767 148.03953 226.5 C 145.61086 216.70715 145.05603000000002 215.46246 142.98364 215.1579 C 141.70332000000002 214.96974 138.08302 212.24302 134.93852 209.09852 C 123.23314 197.39314000000002 116.89146000000001 177.37556 121.43982000000001 166.48978 C 123.00204000000001 162.75088 128.15457 159.00970999999998 131.75 159.00374 C 134.44781 158.99974 134.47062 158.60296 132.91375 138.78796 C 130.92658 113.4962 134.27903 92.26542699999999 143.13217 74.075676 C 152.23162 55.379835 167.56889 42.88208 189.04934 36.659507000000005 C 210.20334 30.531504000000005 237.79666 30.531504000000005 258.95065999999997 36.659507000000005 C 300.04166 48.562968000000005 318.95842 83.80634 314.95504999999997 141 C 314.31982999999997 150.075 313.62402 157.78816 313.4088 158.14035 C 313.19359 158.49254000000002 314.57532 159.07295000000002 316.47931 159.43014000000002 C 328.92867 161.76565000000002 330.98619 177.01772000000003 321.49638 196.62092 C 316.90319 206.10912000000002 309.35724 214.50797 304.81732 215.18517000000003 C 303.02259 215.45289000000002 302.2931 217.14618000000002 299.94277999999997 226.50000000000003 C 296.65948 239.56693 294.47402 245.30522000000002 287.94764 257.99534000000006 C 282.49071999999995 268.60596000000004 273.03466 281.10922000000005 268.10756999999995 284.2288300000001 L 264.87062 286.27832000000006 L 265.51815999999997 292.88916000000006 C 266.34490999999997 301.32961000000006 268.63948999999997 309.8706000000001 270.87735999999995 312.83742000000007 C 272.06735 314.4150200000001 275.00244999999995 315.78963000000005 280.0630699999999 317.13941000000005 C 291.06929999999994 320.0750300000001 303.61700999999994 325.27420000000006 320.99999999999994 334.10171 C 369.81470999999993 358.89104000000003 410.84810999999996 393.75797 425.03216 422.5 C 429.06985999999995 430.68183 432 440.23198 432 445.2101 L 432 448 L 224 448 L 16 448 L 16 445.2101 Z"/></g></g></g><g transform="matrix(1,0,0,1,4.039999999999992,13.680000000000007)"><g transform="matrix(0.04,0,0,0.04,63.36,69.12)"><g transform="matrix(1,0,0,1,0,0)"><path fill="none" stroke="none"/></g><g transform="matrix(1,0,0,1,0,0)"><path fill="none" stroke="none"/></g></g></g><g transform="matrix(1,0,0,1,35,28.5)"><text fill="#000000" stroke="none" font-family="Open Sans" font-size="12pt" font-style="normal" font-weight="normal" text-decoration="normal" x="46.77734375" y="12" text-anchor="middle" dominant-baseline="alphabetic">     Attach      </text><text fill="#000000" stroke="none" font-family="Open Sans" font-size="12pt" font-style="normal" font-weight="normal" text-decoration="normal" x="46.77734375" y="27" text-anchor="middle" dominant-baseline="alphabetic"> formula to   </text><text fill="#000000" stroke="none" font-family="Open Sans" font-size="12pt" font-style="normal" font-weight="normal" text-decoration="normal" x="46.77734375" y="42" text-anchor="middle" dominant-baseline="alphabetic">medicament</text></g></g><g id="_7210DE2F-5FC7-40A8-9B86-4037F3FFB7B9" bpmn2nodeid="_7210DE2F-5FC7-40A8-9B86-4037F3FFB7B9"><g><path fill="none" stroke="#000000" paint-order="fill stroke markers" d=" M 929 203 L 929 114" stroke-miterlimit="10" stroke-dasharray=""/></g><g transform="matrix(1,0,0,1,929,203)"/><g transform="matrix(1,0,0,1,924,99)"><path fill="#000000" stroke="#000000" paint-order="fill stroke markers" d=" M 10 15 L 0 15 L 5 0 Z" stroke-miterlimit="10" stroke-dasharray=""/></g><g transform="matrix(1,0,0,1,939,151)"/></g><g transform="matrix(1,0,0,1,852,203)"/><g id="_4F63F5BB-F580-41E2-8875-C50B50D16C6C" bpmn2nodeid="_4F63F5BB-F580-41E2-8875-C50B50D16C6C" transform="matrix(1,0,0,1,1087,203)"><g><path fill="none" stroke="none"/></g><g transform="matrix(1,0,0,1,0,0)"><path fill="#ffffff" stroke="none" id="_4F63F5BB-F580-41E2-8875-C50B50D16C6C?shapeType=BACKGROUND" paint-order="stroke fill markers" d=" M 2 0 L 152 0 L 152 0 A 2 2 0 0 1 154 2 L 154 100 L 154 100 A 2 2 0 0 1 152 102 L 2 102 L 2 102 A 2 2 0 0 1 0 100 L 0 2 L 0 2.0000000000000004 A 2 2 0 0 1 1.9999999999999996 0 Z"/></g><g transform="matrix(1,0,0,1,0,0)"><path fill="none" stroke="rgb(0,0,0)" id="_4F63F5BB-F580-41E2-8875-C50B50D16C6C?shapeType=BORDER&amp;renderType=STROKE" paint-order="fill stroke markers" d=" M 2 0 L 152 0 L 152 0 A 2 2 0 0 1 154 2 L 154 100 L 154 100 A 2 2 0 0 1 152 102 L 2 102 L 2 102 A 2 2 0 0 1 0 100 L 0 2 L 0 2.0000000000000004 A 2 2 0 0 1 1.9999999999999996 0 Z" stroke-miterlimit="10" stroke-width="1.5" stroke-dasharray=""/></g><g><g transform="matrix(0.06,0,0,0.06,9.4,9.4)"><g transform="matrix(1,0,0,1,0,0)"><path fill="#393f44" stroke="none" id="_4F63F5BB-F580-41E2-8875-C50B50D16C6C_task__shBX__KZA5" paint-order="stroke fill markers" d=" M 0 0 M 16 445.2101 C 16 440.86867 18.784312 431.12906000000004 22.001325 424.21728 C 35.767643 394.6402 77.282944 359.28049 129 333.08362 C 144.51625 325.22398 157.34689 319.96394 167.80739 317.17416 C 171.93153 316.07426 175.72913 314.41389999999996 176.5251 313.36265 C 178.89361 310.23449999999997 180.91404 302.90781 181.72673 294.5 L 182.5 286.5 L 178.50715 283.45457 C 166.30327 274.14645 154.2837 251.67767 148.03953 226.5 C 145.61086 216.70715 145.05603000000002 215.46246 142.98364 215.1579 C 141.70332000000002 214.96974 138.08302 212.24302 134.93852 209.09852 C 123.23314 197.39314000000002 116.89146000000001 177.37556 121.43982000000001 166.48978 C 123.00204000000001 162.75088 128.15457 159.00970999999998 131.75 159.00374 C 134.44781 158.99974 134.47062 158.60296 132.91375 138.78796 C 130.92658 113.4962 134.27903 92.26542699999999 143.13217 74.075676 C 152.23162 55.379835 167.56889 42.88208 189.04934 36.659507000000005 C 210.20334 30.531504000000005 237.79666 30.531504000000005 258.95065999999997 36.659507000000005 C 300.04166 48.562968000000005 318.95842 83.80634 314.95504999999997 141 C 314.31982999999997 150.075 313.62402 157.78816 313.4088 158.14035 C 313.19359 158.49254000000002 314.57532 159.07295000000002 316.47931 159.43014000000002 C 328.92867 161.76565000000002 330.98619 177.01772000000003 321.49638 196.62092 C 316.90319 206.10912000000002 309.35724 214.50797 304.81732 215.18517000000003 C 303.02259 215.45289000000002 302.2931 217.14618000000002 299.94277999999997 226.50000000000003 C 296.65948 239.56693 294.47402 245.30522000000002 287.94764 257.99534000000006 C 282.49071999999995 268.60596000000004 273.03466 281.10922000000005 268.10756999999995 284.2288300000001 L 264.87062 286.27832000000006 L 265.51815999999997 292.88916000000006 C 266.34490999999997 301.32961000000006 268.63948999999997 309.8706000000001 270.87735999999995 312.83742000000007 C 272.06735 314.4150200000001 275.00244999999995 315.78963000000005 280.0630699999999 317.13941000000005 C 291.06929999999994 320.0750300000001 303.61700999999994 325.27420000000006 320.99999999999994 334.10171 C 369.81470999999993 358.89104000000003 410.84810999999996 393.75797 425.03216 422.5 C 429.06985999999995 430.68183 432 440.23198 432 445.2101 L 432 448 L 224 448 L 16 448 L 16 445.2101 Z"/></g></g></g><g transform="matrix(1,0,0,1,4.039999999999992,13.680000000000007)"><g transform="matrix(0.04,0,0,0.04,63.36,69.12)"><g transform="matrix(1,0,0,1,0,0)"><path fill="none" stroke="none"/></g><g transform="matrix(1,0,0,1,0,0)"><path fill="none" stroke="none"/></g></g></g><g transform="matrix(1,0,0,1,35,28.5)"><text fill="#000000" stroke="none" font-family="Open Sans" font-size="12pt" font-style="normal" font-weight="normal" text-decoration="normal" x="50.16796875" y="12" text-anchor="middle" dominant-baseline="alphabetic">Attach group </text><text fill="#000000" stroke="none" font-family="Open Sans" font-size="12pt" font-style="normal" font-weight="normal" text-decoration="normal" x="50.16796875" y="27" text-anchor="middle" dominant-baseline="alphabetic">         to           </text><text fill="#000000" stroke="none" font-family="Open Sans" font-size="12pt" font-style="normal" font-weight="normal" text-decoration="normal" x="50.16796875" y="42" text-anchor="middle" dominant-baseline="alphabetic"> medicament </text></g></g><g id="_30D8CBC1-FDF6-4AEA-886E-9F18E27CA4EC" bpmn2nodeid="_30D8CBC1-FDF6-4AEA-886E-9F18E27CA4EC"><g><path fill="none" stroke="rgb(0,0,0)" paint-order="fill stroke markers" d=" M 1006 98.7872340425532 L 1151.47840981264 194.74107881259238" stroke-miterlimit="10" stroke-dasharray=""/></g><g transform="matrix(1,0,0,1,1006,98.7872340425532)"/><g transform="matrix(-0.5505947458271719,0.8347726791573332,-0.8347726791573332,-0.5505947458271719,1166.7529737291359,198.82613660421333)"><path fill="rgb(0,0,0)" stroke="rgb(0,0,0)" paint-order="fill stroke markers" d=" M 10 15 L 0 15 L 5 0 Z" stroke-miterlimit="10" stroke-dasharray=""/></g><g transform="matrix(1,0,0,1,1011.5059474582717,142.5458902297033)"/></g><g id="_468CAD4C-66F7-43A6-B36C-D7FAC0795CC9" bpmn2nodeid="_468CAD4C-66F7-43A6-B36C-D7FAC0795CC9"><g><path fill="none" stroke="#000000" paint-order="fill stroke markers" d=" M 1164 203 L 1164 114" stroke-miterlimit="10" stroke-dasharray=""/></g><g transform="matrix(1,0,0,1,1164,203)"/><g transform="matrix(1,0,0,1,1159,99)"><path fill="#000000" stroke="#000000" paint-order="fill stroke markers" d=" M 10 15 L 0 15 L 5 0 Z" stroke-miterlimit="10" stroke-dasharray=""/></g><g transform="matrix(1,0,0,1,1174,151)"/></g><g transform="matrix(1,0,0,1,1087,203)"/><g id="_81ADC59B-4EEA-425E-90BA-5E70F713FBC5" bpmn2nodeid="_81ADC59B-4EEA-425E-90BA-5E70F713FBC5" transform="matrix(1,0,0,1,1322,203)"><g><path fill="none" stroke="none"/></g><g transform="matrix(1,0,0,1,0,0)"><path fill="#ffffff" stroke="none" id="_81ADC59B-4EEA-425E-90BA-5E70F713FBC5?shapeType=BACKGROUND" paint-order="stroke fill markers" d=" M 2 0 L 152 0 L 152 0 A 2 2 0 0 1 154 2 L 154 100 L 154 100 A 2 2 0 0 1 152 102 L 2 102 L 2 102 A 2 2 0 0 1 0 100 L 0 2 L 0 2.0000000000000004 A 2 2 0 0 1 1.9999999999999996 0 Z"/></g><g transform="matrix(1,0,0,1,0,0)"><path fill="none" stroke="rgb(0,0,0)" id="_81ADC59B-4EEA-425E-90BA-5E70F713FBC5?shapeType=BORDER&amp;renderType=STROKE" paint-order="fill stroke markers" d=" M 2 0 L 152 0 L 152 0 A 2 2 0 0 1 154 2 L 154 100 L 154 100 A 2 2 0 0 1 152 102 L 2 102 L 2 102 A 2 2 0 0 1 0 100 L 0 2 L 0 2.0000000000000004 A 2 2 0 0 1 1.9999999999999996 0 Z" stroke-miterlimit="10" stroke-width="1.5" stroke-dasharray=""/></g><g><g transform="matrix(0.06,0,0,0.06,9.4,9.4)"><g transform="matrix(1,0,0,1,0,0)"><path fill="#393f44" stroke="none" id="_81ADC59B-4EEA-425E-90BA-5E70F713FBC5_task__shBX__KZA5" paint-order="stroke fill markers" d=" M 0 0 M 16 445.2101 C 16 440.86867 18.784312 431.12906000000004 22.001325 424.21728 C 35.767643 394.6402 77.282944 359.28049 129 333.08362 C 144.51625 325.22398 157.34689 319.96394 167.80739 317.17416 C 171.93153 316.07426 175.72913 314.41389999999996 176.5251 313.36265 C 178.89361 310.23449999999997 180.91404 302.90781 181.72673 294.5 L 182.5 286.5 L 178.50715 283.45457 C 166.30327 274.14645 154.2837 251.67767 148.03953 226.5 C 145.61086 216.70715 145.05603000000002 215.46246 142.98364 215.1579 C 141.70332000000002 214.96974 138.08302 212.24302 134.93852 209.09852 C 123.23314 197.39314000000002 116.89146000000001 177.37556 121.43982000000001 166.48978 C 123.00204000000001 162.75088 128.15457 159.00970999999998 131.75 159.00374 C 134.44781 158.99974 134.47062 158.60296 132.91375 138.78796 C 130.92658 113.4962 134.27903 92.26542699999999 143.13217 74.075676 C 152.23162 55.379835 167.56889 42.88208 189.04934 36.659507000000005 C 210.20334 30.531504000000005 237.79666 30.531504000000005 258.95065999999997 36.659507000000005 C 300.04166 48.562968000000005 318.95842 83.80634 314.95504999999997 141 C 314.31982999999997 150.075 313.62402 157.78816 313.4088 158.14035 C 313.19359 158.49254000000002 314.57532 159.07295000000002 316.47931 159.43014000000002 C 328.92867 161.76565000000002 330.98619 177.01772000000003 321.49638 196.62092 C 316.90319 206.10912000000002 309.35724 214.50797 304.81732 215.18517000000003 C 303.02259 215.45289000000002 302.2931 217.14618000000002 299.94277999999997 226.50000000000003 C 296.65948 239.56693 294.47402 245.30522000000002 287.94764 257.99534000000006 C 282.49071999999995 268.60596000000004 273.03466 281.10922000000005 268.10756999999995 284.2288300000001 L 264.87062 286.27832000000006 L 265.51815999999997 292.88916000000006 C 266.34490999999997 301.32961000000006 268.63948999999997 309.8706000000001 270.87735999999995 312.83742000000007 C 272.06735 314.4150200000001 275.00244999999995 315.78963000000005 280.0630699999999 317.13941000000005 C 291.06929999999994 320.0750300000001 303.61700999999994 325.27420000000006 320.99999999999994 334.10171 C 369.81470999999993 358.89104000000003 410.84810999999996 393.75797 425.03216 422.5 C 429.06985999999995 430.68183 432 440.23198 432 445.2101 L 432 448 L 224 448 L 16 448 L 16 445.2101 Z"/></g></g></g><g transform="matrix(1,0,0,1,4.039999999999992,13.680000000000007)"><g transform="matrix(0.04,0,0,0.04,63.36,69.12)"><g transform="matrix(1,0,0,1,0,0)"><path fill="none" stroke="none"/></g><g transform="matrix(1,0,0,1,0,0)"><path fill="none" stroke="none"/></g></g></g><g transform="matrix(1,0,0,1,35,28.5)"><text fill="#000000" stroke="none" font-family="Open Sans" font-size="12pt" font-style="normal" font-weight="normal" text-decoration="normal" x="46.77734375" y="12" text-anchor="middle" dominant-baseline="alphabetic">     Attach      </text><text fill="#000000" stroke="none" font-family="Open Sans" font-size="12pt" font-style="normal" font-weight="normal" text-decoration="normal" x="46.77734375" y="27" text-anchor="middle" dominant-baseline="alphabetic"> interract to  </text><text fill="#000000" stroke="none" font-family="Open Sans" font-size="12pt" font-style="normal" font-weight="normal" text-decoration="normal" x="46.77734375" y="42" text-anchor="middle" dominant-baseline="alphabetic">medicament</text></g></g><g id="_A95236A2-B5E9-4C58-9193-1C4CF9F96E11" bpmn2nodeid="_A95236A2-B5E9-4C58-9193-1C4CF9F96E11"><g><path fill="none" stroke="rgb(0,0,0)" paint-order="fill stroke markers" d=" M 1241 98.7872340425532 L 1386.47840981264 194.74107881259238" stroke-miterlimit="10" stroke-dasharray=""/></g><g transform="matrix(1,0,0,1,1241,98.7872340425532)"/><g transform="matrix(-0.5505947458271719,0.8347726791573332,-0.8347726791573332,-0.5505947458271719,1401.7529737291359,198.82613660421333)"><path fill="rgb(0,0,0)" stroke="rgb(0,0,0)" paint-order="fill stroke markers" d=" M 10 15 L 0 15 L 5 0 Z" stroke-miterlimit="10" stroke-dasharray=""/></g><g transform="matrix(1,0,0,1,1246.5059474582717,142.5458902297033)"/></g><g transform="matrix(1,0,0,1,1322,203)"/><g id="_F042FDA9-CB78-48E0-BDCD-0446B3A7B97E" bpmn2nodeid="_F042FDA9-CB78-48E0-BDCD-0446B3A7B97E" transform="matrix(1,0,0,1,1322,-3)"><g><path fill="none" stroke="none"/></g><g transform="matrix(1,0,0,1,0,0)"><path fill="#ffffff" stroke="none" id="_F042FDA9-CB78-48E0-BDCD-0446B3A7B97E?shapeType=BACKGROUND" paint-order="stroke fill markers" d=" M 2 0 L 152 0 L 152 0 A 2 2 0 0 1 154 2 L 154 100 L 154 100 A 2 2 0 0 1 152 102 L 2 102 L 2 102 A 2 2 0 0 1 0 100 L 0 2 L 0 2.0000000000000004 A 2 2 0 0 1 1.9999999999999996 0 Z"/></g><g transform="matrix(1,0,0,1,0,0)"><path fill="none" stroke="rgb(0,0,0)" id="_F042FDA9-CB78-48E0-BDCD-0446B3A7B97E?shapeType=BORDER&amp;renderType=STROKE" paint-order="fill stroke markers" d=" M 2 0 L 152 0 L 152 0 A 2 2 0 0 1 154 2 L 154 100 L 154 100 A 2 2 0 0 1 152 102 L 2 102 L 2 102 A 2 2 0 0 1 0 100 L 0 2 L 0 2.0000000000000004 A 2 2 0 0 1 1.9999999999999996 0 Z" stroke-miterlimit="10" stroke-width="1.5" stroke-dasharray=""/></g><g><g transform="matrix(0.06,0,0,0.06,9.4,9.4)"><g transform="matrix(1,0,0,1,0,0)"><path fill="#393f44" stroke="none" id="_F042FDA9-CB78-48E0-BDCD-0446B3A7B97E_task__Ua3n__3QFT" paint-order="stroke fill markers" d=" M 0 0 M 197.3 130.2 C 194.4 127.29999999999998 189.60000000000002 127.29999999999998 186.70000000000002 130.2 L 130.20000000000002 186.7 C 127.30000000000001 189.6 127.30000000000001 194.39999999999998 130.20000000000002 197.29999999999998 L 186.70000000000002 253.79999999999998 C 188.10000000000002 255.29999999999998 190.10000000000002 255.99999999999997 192.00000000000003 255.99999999999997 C 193.90000000000003 255.99999999999997 195.90000000000003 255.29999999999998 197.30000000000004 253.69999999999996 C 200.20000000000005 250.79999999999995 200.20000000000005 245.99999999999997 197.30000000000004 243.09999999999997 L 146.2 192 L 197.29999999999998 140.8 C 200.2 137.9 200.2 133.1 197.3 130.2 Z"/></g><g transform="matrix(1,0,0,1,0,0)"><path fill="#393f44" stroke="none" id="_F042FDA9-CB78-48E0-BDCD-0446B3A7B97E_task__Ua3n__REIR" paint-order="stroke fill markers" d=" M 0 0 M 261.3 130.2 C 258.40000000000003 127.29999999999998 253.60000000000002 127.29999999999998 250.70000000000002 130.2 C 247.8 133.1 247.8 137.89999999999998 250.70000000000002 140.79999999999998 L 301.8 191.89999999999998 L 250.7 243 C 247.79999999999998 245.9 247.79999999999998 250.7 250.7 253.6 C 252.1 255.29999999999998 254.1 256 256 256 C 257.9 256 259.9 255.3 261.3 253.8 L 317.8 197.3 C 320.7 194.4 320.7 189.60000000000002 317.8 186.70000000000002 L 261.3 130.2 Z"/></g><g transform="matrix(1,0,0,1,0,0)"><path fill="#393f44" stroke="none" id="_F042FDA9-CB78-48E0-BDCD-0446B3A7B97E_task__Ua3n__NQH7" paint-order="stroke fill markers" d=" M 0 0 M 400 32 C 400 32 152.8 32 128 32 C 62 32 64 96 64 96 L 64 288 L 1 288 C 1 288 -4 416 78 416 L 320 416 C 368 416 384 368 384 336 C 384 314.2 384 224.4 384 160 L 448 160 L 448 96 C 448 96 449 32 400 32 Z M 0 0 M 78 383.9 C 68.5 383.9 61.6 381.09999999999997 55.5 374.9 C 43.4 362.4 37.5 339.59999999999997 34.9 320 L 256.9 320 C 257.09999999999997 322.7 257.29999999999995 325.4 257.59999999999997 328.2 C 259.99999999999994 351.59999999999997 264.7 370.09999999999997 271.9 383.9 L 78 383.9 L 78 383.9 Z M 0 0 M 352 336 C 352 345.9 349.6 360.3 342.9 371 C 337.2 380.1 330.4 384 320 384 C 285 384 288 288 288 288 L 96 288 L 96 96 L 96 95.9 L 96 95.10000000000001 C 96 90.60000000000001 97.6 78.30000000000001 104.7 71.20000000000002 C 106.5 69.40000000000002 111.9 64.00000000000001 128 64.00000000000001 L 356.5 64.00000000000001 C 354.4 72.80000000000001 352.8 81.80000000000001 352.2 89.9 C 352.2 90.5 352.09999999999997 91.10000000000001 352.09999999999997 91.7 C 352.09999999999997 92 352.09999999999997 92.3 352.09999999999997 92.60000000000001 C 352 94.8 352 96 352 96 L 352 160 L 352 336 Z"/></g></g></g><g transform="matrix(1,0,0,1,43.015625,28.5)"><text fill="#000000" stroke="none" font-family="Open Sans" font-size="12pt" font-style="normal" font-weight="normal" text-decoration="normal" x="33.984375" y="12" text-anchor="middle" dominant-baseline="alphabetic">  Attach   </text><text fill="#000000" stroke="none" font-family="Open Sans" font-size="12pt" font-style="normal" font-weight="normal" text-decoration="normal" x="33.984375" y="27" text-anchor="middle" dominant-baseline="alphabetic">Interract </text><text fill="#000000" stroke="none" font-family="Open Sans" font-size="12pt" font-style="normal" font-weight="normal" text-decoration="normal" x="33.984375" y="42" text-anchor="middle" dominant-baseline="alphabetic">   Script   </text></g></g><g id="_181E5234-4722-4C42-9008-9DBC5CEED61E" bpmn2nodeid="_181E5234-4722-4C42-9008-9DBC5CEED61E"><g><path fill="none" stroke="#000000" paint-order="fill stroke markers" d=" M 1399 203 L 1399 114" stroke-miterlimit="10" stroke-dasharray=""/></g><g transform="matrix(1,0,0,1,1399,203)"/><g transform="matrix(1,0,0,1,1394,99)"><path fill="#000000" stroke="#000000" paint-order="fill stroke markers" d=" M 10 15 L 0 15 L 5 0 Z" stroke-miterlimit="10" stroke-dasharray=""/></g><g transform="matrix(1,0,0,1,1409,151)"/></g><g transform="matrix(1,0,0,1,1322,-3)"/><g transform="matrix(1,0,0,1,852,-3)"/><g id="_EF30F304-8CF5-4EE2-B4C8-EEC03889C627" bpmn2nodeid="_EF30F304-8CF5-4EE2-B4C8-EEC03889C627" transform="matrix(1,0,0,1,700,229)"><g><path fill="none" stroke="none"/></g><g transform="matrix(0.125,0,0,0.125,0,0)"><g transform="matrix(1,0,0,1,0,0)"><path fill="#fef4ea" stroke="none" id="_EF30F304-8CF5-4EE2-B4C8-EEC03889C627?shapeType=BACKGROUND" paint-order="stroke fill markers" d=" M 0 0 M 224.4 4.3 C 216.4 4.3 208.4 7.3 202.3 13.399999999999999 L 13.5 202.2 C 1.3000000000000007 214.39999999999998 1.3000000000000007 234.2 13.5 246.39999999999998 L 202.2 435.09999999999997 C 208.29999999999998 441.2 216.39999999999998 444.2 224.29999999999998 444.2 C 232.2 444.2 240.29999999999998 441.2 246.39999999999998 435.09999999999997 L 435.09999999999997 246.39999999999998 C 447.29999999999995 234.2 447.29999999999995 214.39999999999998 435.09999999999997 202.2 L 246.5 13.4 C 240.4 7.3 232.4 4.3 224.4 4.3 L 224.4 4.3 Z"/></g><g><g transform="matrix(1,0,0,1,0,0)"><g transform="matrix(1,0,0,1,0,0)"><path fill="rgb(236,122,8)" stroke="none" id="_EF30F304-8CF5-4EE2-B4C8-EEC03889C627?shapeType=BORDER&amp;renderType=FILL" paint-order="stroke fill markers" d=" M 0 0 M 20.8 212.7 L 213.3 20.2 C 219.60000000000002 13.899999999999999 229.70000000000002 13.899999999999999 235.9 20.2 L 428.4 212.7 C 434.7 219 434.7 229.1 428.4 235.29999999999998 L 235.9 427.8 C 229.6 434.1 219.5 434.1 213.3 427.8 L 20.8 235.3 C 14.5 229.1 14.5 218.9 20.8 212.7 L 20.8 212.7 Z M 0 0 M 0 224 C 0 232.1 3.1 240.3 9.3 246.5 L 201.5 438.7 C 213.9 451.09999999999997 234.1 451.09999999999997 246.5 438.7 L 438.7 246.5 C 444.9 240.3 448 232.1 448 224 C 448 215.9 444.9 207.7 438.7 201.5 L 246.5 9.3 C 234.1 -3.0999999999999996 213.9 -3.0999999999999996 201.5 9.3 L 9.3 201.5 C 3.1 207.7 0 215.9 0 224 L 0 224 Z"/></g></g></g><g><g transform="matrix(1,0,0,1,0,0)"><g transform="matrix(1,0,0,1,0,0)"><path fill="#ec7a08" stroke="none" id="_EF30F304-8CF5-4EE2-B4C8-EEC03889C627_parallel" paint-order="stroke fill markers" d=" M 0 0 M 312 212 L 312 236 C 312 239.4 310.9 242.1 308.5 244.5 C 306.1 246.9 303.4 248 300 248 L 248 248 L 248 300 C 248 303.4 246.9 306.1 244.5 308.5 C 242.1 310.9 239.4 312 236 312 L 212 312 C 208.6 312 205.9 310.9 203.5 308.5 C 201.1 306.1 200 303.4 200 300 L 200 248 L 148 248 C 144.6 248 141.9 246.9 139.5 244.5 C 137.1 242.1 136 239.4 136 236 L 136 212 C 136 208.6 137.1 205.9 139.5 203.5 C 141.9 201.1 144.6 200 148 200 L 200 200 L 200 148 C 200 144.6 201.1 141.9 203.5 139.5 C 205.9 137.1 208.6 136 212 136 L 236 136 C 239.4 136 242.1 137.1 244.5 139.5 C 246.9 141.9 248 144.6 248 148 L 248 200 L 300 200 C 303.4 200 306.1 201.1 308.5 203.5 C 310.9 205.9 312 208.6 312 212 Z"/></g></g></g></g><g transform="matrix(1,0,0,1,28,61)"/></g><g id="_7F5C1326-FF40-4F32-8601-75CE44CADEF4" bpmn2nodeid="_7F5C1326-FF40-4F32-8601-75CE44CADEF4"><g><path fill="none" stroke="#000000" paint-order="fill stroke markers" d=" M 620 162 L 690.3379638132583 245.52633202824424" stroke-miterlimit="10" stroke-dasharray=""/></g><g transform="matrix(1,0,0,1,620,162)"/><g transform="matrix(-0.76491119811705,0.6441357457827807,-0.6441357457827807,-0.76491119811705,703.8245559905853,253.7793212710861)"><path fill="#000000" stroke="#000000" paint-order="fill stroke markers" d=" M 10 15 L 0 15 L 5 0 Z" stroke-miterlimit="10" stroke-dasharray=""/></g><g transform="matrix(1,0,0,1,627.6491119811706,203.0586425421722)"/></g><g id="_87447BF7-54D0-4CCC-836A-7040259ED7DF" bpmn2nodeid="_87447BF7-54D0-4CCC-836A-7040259ED7DF"><g><path fill="none" stroke="#000000" paint-order="fill stroke markers" d=" M 728 285 L 728 482" stroke-miterlimit="10" stroke-dasharray=""/></g><g transform="matrix(1,0,0,1,728,285)"/><g transform="matrix(-1,1.2246467991473532e-16,-1.2246467991473532e-16,-1,733,497)"><path fill="#000000" stroke="#000000" paint-order="fill stroke markers" d=" M 10 15 L 0 15 L 5 0 Z" stroke-miterlimit="10" stroke-dasharray=""/></g><g transform="matrix(1,0,0,1,738,391)"/></g><g id="_D27880DE-FFD9-4C37-9EFE-D66EB4334EB7" bpmn2nodeid="_D27880DE-FFD9-4C37-9EFE-D66EB4334EB7"><g><path fill="none" stroke="#000000" paint-order="fill stroke markers" d=" M 756 257 L 837.0073188586938 254.46852128566582" stroke-miterlimit="10" stroke-dasharray=""/></g><g transform="matrix(1,0,0,1,756,257)"/><g transform="matrix(0.031234752377721147,0.9995120760870788,-0.9995120760870788,0.031234752377721147,851.8438262381114,249.0024396195646)"><path fill="#000000" stroke="#000000" paint-order="fill stroke markers" d=" M 10 15 L 0 15 L 5 0 Z" stroke-miterlimit="10" stroke-dasharray=""/></g><g transform="matrix(1,0,0,1,756.3123475237772,245.50487923912922)"/></g><g transform="matrix(1,0,0,1,700,229)"/><g id="_4D61C463-9811-4093-984A-9B8C50310279" bpmn2nodeid="_4D61C463-9811-4093-984A-9B8C50310279" transform="matrix(1,0,0,1,1790,20)"><g><path fill="none" stroke="none"/></g><g transform="matrix(0.125,0,0,0.125,0,0)"><g transform="matrix(1,0,0,1,0,0)"><path fill="#fce7e7" stroke="none" id="_4D61C463-9811-4093-984A-9B8C50310279?shapeType=BACKGROUND" paint-order="stroke fill markers" d=" M 0 0 M 444 224 C 444 263.9 434.2 300.8 414.4 334.5 C 394.7 368.2 368 394.9 334.4 414.5 C 300.79999999999995 434.1 263.9 444 224 444 C 184.10000000000002 444 147.2 434.2 113.5 414.4 C 79.8 394.7 53.1 368 33.5 334.4 C 13.899999999999999 300.79999999999995 4 263.9 4 224 C 4 184.10000000000002 13.8 147.2 33.6 113.5 C 53.400000000000006 79.80000000000001 80.1 53.1 113.6 33.5 C 147.1 13.899999999999999 184.1 4 224 4 C 263.9 4 300.8 13.8 334.5 33.6 C 368.2 53.400000000000006 394.9 80.1 414.5 113.6 C 434.1 147.1 444 184.1 444 224 Z"/></g><g><g transform="matrix(1,0,0,1,0,0)"><g transform="matrix(1,0,0,1,0,0)"><path fill="rgb(163,0,0)" stroke="none" id="_4D61C463-9811-4093-984A-9B8C50310279?shapeType=BORDER&amp;renderType=FILL" paint-order="stroke fill markers" d=" M 0 0 M 224 0 C 100.3 0 0 100.3 0 224 C 0 347.7 100.3 448 224 448 C 347.7 448 448 347.7 448 224 C 448 100.30000000000001 347.7 0 224 0 Z M 0 0 M 224 400 C 126.8 400 48 321.2 48 224 C 48 126.80000000000001 126.8 48 224 48 C 321.2 48 400 126.8 400 224 C 400 321.2 321.2 400 224 400 Z"/></g></g></g></g><g transform="matrix(1,0,0,1,28,61)"/></g><g transform="matrix(1,0,0,1,1790,20)"/><g id="_0992CDE6-EEE0-4C46-9ACD-D81FBDABE7E4" bpmn2nodeid="_0992CDE6-EEE0-4C46-9ACD-D81FBDABE7E4" transform="matrix(1,0,0,1,1556,-3)"><g><path fill="none" stroke="none"/></g><g transform="matrix(1,0,0,1,0,0)"><path fill="#ffffff" stroke="none" id="_0992CDE6-EEE0-4C46-9ACD-D81FBDABE7E4?shapeType=BACKGROUND" paint-order="stroke fill markers" d=" M 2 0 L 152 0 L 152 0 A 2 2 0 0 1 154 2 L 154 100 L 154 100 A 2 2 0 0 1 152 102 L 2 102 L 2 102 A 2 2 0 0 1 0 100 L 0 2 L 0 2.0000000000000004 A 2 2 0 0 1 1.9999999999999996 0 Z"/></g><g transform="matrix(1,0,0,1,0,0)"><path fill="none" stroke="rgb(0,136,206)" id="_0992CDE6-EEE0-4C46-9ACD-D81FBDABE7E4?shapeType=BORDER&amp;renderType=STROKE" paint-order="fill stroke markers" d=" M 2 0 L 152 0 L 152 0 A 2 2 0 0 1 154 2 L 154 100 L 154 100 A 2 2 0 0 1 152 102 L 2 102 L 2 102 A 2 2 0 0 1 0 100 L 0 2 L 0 2.0000000000000004 A 2 2 0 0 1 1.9999999999999996 0 Z" stroke-miterlimit="10" stroke-width="1.5" stroke-dasharray=""/></g><g><g transform="matrix(0.06,0,0,0.06,9.4,9.4)"><g transform="matrix(1,0,0,1,0,0)"><path fill="#393f44" stroke="none" id="_0992CDE6-EEE0-4C46-9ACD-D81FBDABE7E4_task__shBX__KZA5" paint-order="stroke fill markers" d=" M 0 0 M 16 445.2101 C 16 440.86867 18.784312 431.12906000000004 22.001325 424.21728 C 35.767643 394.6402 77.282944 359.28049 129 333.08362 C 144.51625 325.22398 157.34689 319.96394 167.80739 317.17416 C 171.93153 316.07426 175.72913 314.41389999999996 176.5251 313.36265 C 178.89361 310.23449999999997 180.91404 302.90781 181.72673 294.5 L 182.5 286.5 L 178.50715 283.45457 C 166.30327 274.14645 154.2837 251.67767 148.03953 226.5 C 145.61086 216.70715 145.05603000000002 215.46246 142.98364 215.1579 C 141.70332000000002 214.96974 138.08302 212.24302 134.93852 209.09852 C 123.23314 197.39314000000002 116.89146000000001 177.37556 121.43982000000001 166.48978 C 123.00204000000001 162.75088 128.15457 159.00970999999998 131.75 159.00374 C 134.44781 158.99974 134.47062 158.60296 132.91375 138.78796 C 130.92658 113.4962 134.27903 92.26542699999999 143.13217 74.075676 C 152.23162 55.379835 167.56889 42.88208 189.04934 36.659507000000005 C 210.20334 30.531504000000005 237.79666 30.531504000000005 258.95065999999997 36.659507000000005 C 300.04166 48.562968000000005 318.95842 83.80634 314.95504999999997 141 C 314.31982999999997 150.075 313.62402 157.78816 313.4088 158.14035 C 313.19359 158.49254000000002 314.57532 159.07295000000002 316.47931 159.43014000000002 C 328.92867 161.76565000000002 330.98619 177.01772000000003 321.49638 196.62092 C 316.90319 206.10912000000002 309.35724 214.50797 304.81732 215.18517000000003 C 303.02259 215.45289000000002 302.2931 217.14618000000002 299.94277999999997 226.50000000000003 C 296.65948 239.56693 294.47402 245.30522000000002 287.94764 257.99534000000006 C 282.49071999999995 268.60596000000004 273.03466 281.10922000000005 268.10756999999995 284.2288300000001 L 264.87062 286.27832000000006 L 265.51815999999997 292.88916000000006 C 266.34490999999997 301.32961000000006 268.63948999999997 309.8706000000001 270.87735999999995 312.83742000000007 C 272.06735 314.4150200000001 275.00244999999995 315.78963000000005 280.0630699999999 317.13941000000005 C 291.06929999999994 320.0750300000001 303.61700999999994 325.27420000000006 320.99999999999994 334.10171 C 369.81470999999993 358.89104000000003 410.84810999999996 393.75797 425.03216 422.5 C 429.06985999999995 430.68183 432 440.23198 432 445.2101 L 432 448 L 224 448 L 16 448 L 16 445.2101 Z"/></g></g></g><g transform="matrix(1,0,0,1,4.039999999999992,13.680000000000007)"><g transform="matrix(0.04,0,0,0.04,63.36,69.12)"><g transform="matrix(1,0,0,1,0,0)"><path fill="none" stroke="none"/></g><g transform="matrix(1,0,0,1,0,0)"><path fill="none" stroke="none"/></g></g></g><g transform="matrix(1,0,0,1,45.859375,43.5)"><text fill="#000000" stroke="none" font-family="Open Sans" font-size="12pt" font-style="normal" font-weight="normal" text-decoration="normal" x="31.140625" y="12" text-anchor="middle" dominant-baseline="alphabetic">Approve</text></g></g><g id="_B4E2494E-46CB-47C1-9B45-65DC6F5F3B75" bpmn2nodeid="_B4E2494E-46CB-47C1-9B45-65DC6F5F3B75"><g><path fill="none" stroke="#000000" paint-order="fill stroke markers" d=" M 1476 48 L 1541 48" stroke-miterlimit="10" stroke-dasharray=""/></g><g transform="matrix(1,0,0,1,1476,48)"/><g transform="matrix(6.123233995736766e-17,1,-1,6.123233995736766e-17,1556,43)"><path fill="#000000" stroke="#000000" paint-order="fill stroke markers" d=" M 10 15 L 0 15 L 5 0 Z" stroke-miterlimit="10" stroke-dasharray=""/></g><g transform="matrix(1,0,0,1,1476,38)"/></g><g id="_307D63BB-1F08-4B44-8402-426189E36AD3" bpmn2nodeid="_307D63BB-1F08-4B44-8402-426189E36AD3"><g><path fill="none" stroke="#000000" paint-order="fill stroke markers" d=" M 1710 48 L 1775 48" stroke-miterlimit="10" stroke-dasharray=""/></g><g transform="matrix(1,0,0,1,1710,48)"/><g transform="matrix(6.123233995736766e-17,1,-1,6.123233995736766e-17,1790,43)"><path fill="#000000" stroke="#000000" paint-order="fill stroke markers" d=" M 10 15 L 0 15 L 5 0 Z" stroke-miterlimit="10" stroke-dasharray=""/></g><g transform="matrix(1,0,0,1,1710,38)"/></g><g transform="matrix(1,0,0,1,1556,-3)"/></g></g></svg>